<svg width="34" height="34" viewBox="0 0 34 34" fill="none" xmlns="http://www.w3.org/2000/svg">
<rect width="34" height="34" rx="8" fill="#EBFD71"/>
<path d="M17.5207 11.9977H16.4826C16.3876 11.9977 16.3099 12.073 16.3099 12.1651V17.9272C16.3099 17.9816 16.3358 18.0319 16.3811 18.0633L19.9488 20.5895C20.0265 20.644 20.1344 20.6293 20.1905 20.554L20.8078 19.7377C20.866 19.6602 20.8488 19.5556 20.7711 19.5033L17.6934 17.3453V12.1651C17.6934 12.073 17.6157 11.9977 17.5207 11.9977ZM22.2646 13.5716L25.6488 14.3733C25.7567 14.3984 25.8625 14.3188 25.8625 14.2121L25.8798 10.8319C25.8798 10.6916 25.7136 10.6121 25.6013 10.7L22.1999 13.2765C22.1742 13.2958 22.1546 13.3217 22.1434 13.3513C22.1322 13.3809 22.1299 13.413 22.1366 13.4438C22.1434 13.4746 22.159 13.503 22.1816 13.5256C22.2043 13.5482 22.233 13.5642 22.2646 13.5716ZM25.8841 19.8737L24.6603 19.4656C24.6177 19.4514 24.571 19.454 24.5302 19.4727C24.4895 19.4915 24.4579 19.525 24.4423 19.566C24.4013 19.6728 24.3582 19.7774 24.3128 19.8821C23.9287 20.7633 23.3783 21.5565 22.6747 22.2367C21.9789 22.9136 21.1543 23.4531 20.2466 23.8253C19.3063 24.2109 18.2955 24.4088 17.2747 24.4072C16.243 24.4072 15.2437 24.2126 14.3027 23.8253C13.395 23.4531 12.5704 22.9136 11.8746 22.2367C11.1732 21.5565 10.6228 20.7633 10.2365 19.8821C9.84108 18.9697 9.63852 17.9897 9.64078 17C9.64078 15.9995 9.8415 15.0284 10.2408 14.1158C10.625 13.2347 11.1753 12.4414 11.8789 11.7612C12.5747 11.0843 13.3993 10.5448 14.307 10.1726C15.2437 9.78535 16.2451 9.5907 17.2768 9.5907C18.3085 9.5907 19.3078 9.78535 20.2488 10.1726C21.1565 10.5448 21.9811 11.0843 22.6769 11.7612C22.897 11.9767 23.1042 12.2007 23.2941 12.4372L24.5848 11.4577C22.8862 9.3521 20.2423 7.99791 17.2725 8C12.1012 8.0021 7.94868 12.0751 8.00048 17.0921C8.05228 22.0212 12.1854 26 17.2768 26C21.2804 26 24.6905 23.5386 25.9898 20.0914C26.0222 20.0035 25.9747 19.9051 25.8841 19.8737Z" fill="#204F56"/>
</svg>
