<svg width="1324" height="101" viewBox="0 0 1324 101" fill="none" xmlns="http://www.w3.org/2000/svg">
<rect width="1324" height="101" rx="10" fill="#204F56"/>
<mask id="mask0_1094_36002" style="mask-type:alpha" maskUnits="userSpaceOnUse" x="0" y="0" width="1324" height="101">
<rect width="1324" height="101" rx="10" fill="#D9D9D9"/>
</mask>
<g mask="url(#mask0_1094_36002)">
<path d="M507.947 303.664C462.387 272.17 447.582 252.615 515.661 220.632C655.074 155.142 700.771 42.2766 652.252 -80.0036C649.586 -86.7259 646.641 -93.2846 643.432 -99.6723C641.774 -102.972 638.367 -105 634.674 -105H-1.45587C-5.12927 -105 -8.52197 -102.994 -10.1882 -99.7199C-13.8201 -92.5836 -17.1446 -85.1818 -20.1616 -77.5171C-33.2255 -44.3406 -34.2761 -8.39463 -39.5889 31.7601C-40.5706 39.1798 -49.1334 42.689 -55.1738 38.2699C-119.549 -8.82642 -183.16 -52.2212 -236.183 -102.242C-238.054 -104.008 -240.524 -105 -243.096 -105H-519.042C-526.342 -105 -531.141 -97.4461 -527.642 -91.0395C-492.722 -27.0882 -427.825 23.951 -368.721 77.7709C-363.184 82.8129 -365.115 91.9263 -372.129 94.5493C-579.359 172.041 -646.504 268.146 -601.832 413.585C-597.075 429.07 -590.736 443.829 -582.943 457.794C-581.219 460.882 -577.931 462.742 -574.393 462.742H34.9999C38.4794 462.742 41.7172 460.94 43.4885 457.945C69.1561 414.546 88.6061 361.039 102.731 296.403C104.298 289.233 112.756 285.979 118.685 290.305C199.744 349.455 282.907 400.193 351.748 460.254C353.583 461.855 355.929 462.742 358.364 462.742H637.808C645.122 462.742 649.932 455.16 646.49 448.707C616.39 392.277 567.578 344.88 507.947 303.664ZM-157.108 318.073C-157.163 319.661 -157.286 321.238 -157.485 322.799C-163.63 372.577 -194.529 419.778 -267.013 421.245C-324.041 422.406 -358.687 394.829 -358.358 348.179C-357.927 287.731 -281.962 267.46 -213.3 271.97C-199.708 272.864 -185.595 275.056 -175.051 281.701C-161.513 290.238 -156.649 304.458 -157.108 318.073ZM417.54 9.46319C410.97 75.0795 314.089 76.2781 249.833 83.2382C244.605 83.8059 239.186 84.1318 233.856 83.9794C225.354 83.7271 217.091 82.2341 210.233 78.4912C200.299 73.0609 195.093 63.7772 192.825 54.5829C177.718 -6.64913 226.203 -69.6791 312.897 -71.13C380.346 -72.2602 423.001 -45.1452 417.54 9.46319Z" fill="#57BC97"/>
<path d="M1734.38 166.375C1712.13 151.01 1704.9 141.47 1738.14 125.866C1806.22 93.9155 1828.54 38.8519 1804.84 -20.805C1803.92 -23.1241 1802.94 -25.4032 1801.88 -27.6412C1800.31 -30.9808 1796.88 -33 1793.19 -33H1488.66C1484.99 -33 1481.58 -31.0017 1480 -27.6886C1478.75 -25.0604 1477.57 -22.3613 1476.48 -19.5919C1471.02 -5.73215 1469.86 9.11827 1468.01 25.4003C1467.16 32.8341 1458.67 36.3591 1452.61 31.9665C1424.11 11.2951 1396.2 -8.18381 1372.49 -30.2535C1370.6 -32.0051 1368.14 -33 1365.57 -33H1240.87C1233.56 -33 1228.83 -25.46 1232.73 -19.2878C1249.07 6.57093 1275.12 28.2589 1300.02 50.5348C1305.6 55.53 1303.71 64.6286 1296.74 67.3653C1201.71 104.651 1171.19 150.919 1192.43 220.003C1194.46 226.615 1197.09 232.956 1200.26 239.004C1201.91 242.134 1205.21 243.985 1208.75 243.985H1500.56C1504.03 243.985 1507.28 242.189 1509 239.168C1519.79 220.266 1528.25 197.557 1534.69 170.705C1536.4 163.571 1544.86 160.312 1550.83 164.585C1587.74 191.043 1625.17 214.359 1656.64 241.505C1658.48 243.094 1660.83 243.985 1663.26 243.985H1789.76C1797.07 243.985 1801.84 236.407 1798.05 230.152C1783.21 205.664 1761 184.759 1734.38 166.375ZM1409.61 173.405C1409.58 174.18 1409.52 174.949 1409.42 175.711C1406.42 199.996 1391.33 223.024 1355.93 223.739C1328.09 224.306 1311.17 210.852 1311.33 188.093C1311.54 158.602 1348.63 148.712 1382.16 150.913C1388.8 151.349 1395.69 152.418 1400.84 155.66C1407.45 159.825 1409.83 166.762 1409.61 173.405ZM1690.23 22.8432C1687.02 54.8555 1639.71 55.4402 1608.33 58.8359C1605.78 59.1128 1603.13 59.2719 1600.53 59.1975C1596.37 59.0744 1592.34 58.346 1588.99 56.52C1584.14 53.8707 1581.6 49.3414 1580.49 44.8558C1573.11 14.9825 1596.79 -15.768 1639.13 -16.4758C1672.06 -17.0272 1692.89 -3.79861 1690.23 22.8432Z" fill="#57BC97"/>
</g>
</svg>
