<svg width="60" height="59" viewBox="0 0 60 59" fill="none" xmlns="http://www.w3.org/2000/svg">
<rect x="0.333496" width="59" height="59" rx="29.5" fill="#9EB8F9"/>
<path d="M26.0538 41.7102C30.5172 41.7102 34.1355 38.0919 34.1355 33.6285C34.1355 29.1651 30.5172 25.5469 26.0538 25.5469C21.5905 25.5469 17.9722 29.1651 17.9722 33.6285C17.9722 38.0919 21.5905 41.7102 26.0538 41.7102Z" stroke="#204F56" stroke-width="1.60423" stroke-miterlimit="10"/>
<path d="M25.4272 21.7131C29.4364 18.3678 35.3997 18.9123 38.745 22.9214C42.0903 26.9305 41.5458 32.8939 37.5367 36.2392" stroke="#204F56" stroke-width="1.60423" stroke-miterlimit="10"/>
<path d="M30.1039 33.1885C30.1039 34.1842 29.7906 34.8742 29.2051 35.3217C28.765 35.6574 28.2019 35.8289 27.5455 35.8289C26.8891 35.8289 26.2924 35.6536 25.8673 35.3143C25.2818 34.8555 24.9834 34.1358 24.9834 33.2593V33.0766C24.9834 32.5881 24.7522 32.3233 24.3009 32.3233H23.059V35.717H22.0073V31.4319H24.4948C25.1624 31.4319 25.5876 31.7042 25.8188 32.1554C25.9232 32.3568 25.9941 32.603 25.9941 33.1102V33.2631C25.9941 33.4011 26.009 33.5353 26.0351 33.6733C26.8146 33.4719 27.0458 33.2146 27.0458 32.4613V31.4357H28.0341V32.4613C28.0341 33.8561 27.2173 34.1954 26.2999 34.3558C26.3969 34.4826 26.5087 34.6057 26.643 34.6914C26.9003 34.8667 27.1651 34.9562 27.5269 34.9562C27.8886 34.9562 28.2094 34.8593 28.448 34.6914C28.8732 34.3931 29.082 33.9045 29.082 33.2631V31.4319H30.1002V33.1885H30.1039Z" fill="#204F56"/>
<path d="M16.5659 23.2645C16.5659 23.2645 16.9687 17.2191 23.4206 17.2191" stroke="#204F56" stroke-width="1.60423" stroke-miterlimit="10"/>
<path d="M20.251 15L23.3576 17.0438L21.7651 20.4972" stroke="#204F56" stroke-width="1.60423" stroke-miterlimit="10"/>
<path d="M43.1008 35.7355C43.1008 35.7355 42.698 41.7809 36.2461 41.7809" stroke="#204F56" stroke-width="1.60423" stroke-miterlimit="10"/>
<path d="M39.4162 44L36.3096 41.96L37.902 38.5028" stroke="#204F56" stroke-width="1.60423" stroke-miterlimit="10"/>
</svg>
