<svg width="60" height="59" viewBox="0 0 60 59" fill="none" xmlns="http://www.w3.org/2000/svg">
<rect x="0.666504" width="59" height="59" rx="29.5" fill="#EBFD71"/>
<path d="M43.4455 27.8013V25.2025C43.4455 23.1972 41.8172 21.5649 39.8079 21.5649H18.7323C16.7271 21.5649 15.0947 23.1932 15.0947 25.2025V38.9066C15.0947 40.9119 16.723 42.5442 18.7323 42.5442H39.8079C41.8132 42.5442 43.4455 40.9159 43.4455 38.9066V36.1192" stroke="#204F56" stroke-width="1.60423" stroke-linecap="round" stroke-linejoin="round"/>
<path d="M39.2101 27.8013H42.8798C44.1832 27.8013 45.238 28.8601 45.238 30.1595V33.757C45.238 35.0604 44.1792 36.1152 42.8798 36.1152H39.2101C37.0083 36.1152 35.2236 34.3265 35.2236 32.1287V31.7878C35.2236 29.586 37.0123 27.8013 39.2101 27.8013Z" stroke="#204F56" stroke-width="1.60423" stroke-linecap="round" stroke-linejoin="round"/>
<path d="M20.585 21.5648L28.8828 16.9166C30.1702 16.1947 31.967 16.335 33.0338 17.2414L37.9547 21.4164L20.585 21.5608V21.5648Z" stroke="#204F56" stroke-width="1.60423" stroke-linecap="round" stroke-linejoin="round"/>
</svg>
