<svg width="59" height="59" viewBox="0 0 59 59" fill="none" xmlns="http://www.w3.org/2000/svg">
<rect width="59" height="59" rx="29.5" fill="#57BC97"/>
<path d="M20.6425 17H38.3491C40.4507 17 42.1552 18.7045 42.1552 20.806V38.5127C42.1552 40.6143 40.4507 42.3187 38.3491 42.3187H20.6425C18.5409 42.3187 16.8364 40.6143 16.8364 38.5127V20.806C16.8364 18.7045 18.5409 17 20.6425 17Z" stroke="#204F56" stroke-width="1.60423" stroke-linecap="round" stroke-linejoin="round"/>
<path d="M20.6425 23.9664H38.3491C40.4507 23.9664 42.1552 25.6709 42.1552 27.7725V38.5168C42.1552 40.6184 40.4507 42.3228 38.3491 42.3228H20.6425C18.5409 42.3228 16.8364 40.6184 16.8364 38.5168V27.7725C16.8364 25.6709 18.5409 23.9664 20.6425 23.9664Z" stroke="#204F56" stroke-width="1.60423" stroke-linecap="round" stroke-linejoin="round"/>
<path d="M16.8364 30.632H21.1719C21.8416 30.632 22.4833 30.8967 22.9566 31.37L24.633 33.0464C25.1062 33.5197 25.7479 33.7844 26.4177 33.7844H31.6194C32.2892 33.7844 32.9309 33.5197 33.4041 33.0464L34.9402 31.5104C35.4134 31.0371 36.0551 30.7724 36.7249 30.7724H42.1632" stroke="#204F56" stroke-width="1.60423" stroke-linecap="round" stroke-linejoin="round"/>
</svg>
