<svg width="110" height="21" viewBox="0 0 110 21" fill="none" xmlns="http://www.w3.org/2000/svg">
<path fill-rule="evenodd" clip-rule="evenodd" d="M14.4812 0H6.39237C2.86194 0 0 2.87929 0 6.43108V14.5689C0 18.1207 2.86194 21 6.39237 21H14.4812C18.0116 21 20.8736 18.1207 20.8736 14.5689V6.43108C20.8736 2.87929 18.0116 0 14.4812 0ZM7.50163 16.3412C9.61984 16.2674 10.7291 14.9681 11.1999 11.8853C11.5272 12.2044 11.8592 12.5042 12.1857 12.7989C13.1468 13.6666 14.0601 14.4911 14.6647 15.6415C15.1143 16.4963 16.097 16.1862 16.7677 15.9517C17.3013 15.7657 17.1197 15.1785 16.9743 14.7083C16.9602 14.6627 16.9465 14.6183 16.9337 14.5754C16.6512 13.6228 16.0804 12.8502 15.3556 12.1929C14.8849 11.7665 14.7317 11.5015 15.4354 11.0677C16.8769 10.1797 17.3494 8.65015 16.8475 6.9923C16.4126 5.55507 15.2694 4.67077 13.8298 4.65784C11.6709 4.63846 10.3891 5.38615 9.89638 7.02554C9.79299 7.36935 9.76227 7.73501 9.72899 8.13132C9.71296 8.32236 9.69632 8.52051 9.67065 8.72677C9.50501 8.56609 9.33941 8.40912 9.17544 8.25369L9.17393 8.25227C8.22507 7.35286 7.33051 6.50493 6.79331 5.29107C6.47087 4.56385 5.76349 4.70383 5.13334 4.82853C4.98526 4.85783 4.8414 4.8863 4.70781 4.90246C4.09347 4.97657 4.22608 5.39052 4.34576 5.76403C4.37964 5.86972 4.41246 5.97217 4.42704 6.06277C4.60206 7.15825 5.29215 7.9616 5.98455 8.76764L5.98521 8.7684C6.13097 8.9381 6.27684 9.10792 6.41804 9.28061C4.15088 10.344 3.41041 11.6622 3.88386 13.6818C4.27472 15.3535 5.70421 16.404 7.50163 16.3412ZM12.5223 9.21415C12.5774 9.216 12.6333 9.21138 12.6875 9.204C12.7589 9.19387 12.8342 9.18464 12.9119 9.17513C13.5564 9.09618 14.361 8.99762 14.4216 8.2043C14.4785 7.464 14.0371 7.09661 13.3398 7.11231C12.4434 7.13169 11.9425 7.98646 12.0984 8.81631C12.1223 8.94092 12.1755 9.06646 12.2782 9.14031C12.3489 9.19107 12.4342 9.21046 12.5223 9.21415ZM8.48064 12.3868C8.48521 12.2022 8.43477 12.0092 8.29531 11.8938C8.18612 11.8034 8.04024 11.7738 7.89984 11.7618C7.18968 11.7009 6.40428 11.9751 6.40061 12.7948C6.39694 13.4271 6.75569 13.8009 7.34474 13.7852C8.09435 13.7649 8.41364 13.1252 8.47697 12.4505C8.4788 12.4292 8.48064 12.408 8.48064 12.3868ZM26.3989 3.70588V16.4937V16.4947H28.9404V11.0145L29.2314 10.7038L33.6257 16.4947H36.7493L31.3743 9.333L36.6043 3.70588H33.4807L28.9414 8.65703V3.70588H26.3989ZM38.4384 16.1284C39.152 16.5178 39.9751 16.713 40.9078 16.713L40.9089 16.7151C41.6225 16.7151 42.2735 16.5776 42.8608 16.3037C43.4472 16.0297 43.9438 15.6581 44.3496 15.1889C44.7554 14.7198 45.0486 14.1928 45.2301 13.6082H42.6334C42.4759 13.9126 42.2526 14.1592 41.9615 14.3482C41.6704 14.5371 41.3251 14.6316 40.8901 14.6316C40.455 14.6316 40.0701 14.5371 39.7373 14.3482C39.4044 14.1592 39.1447 13.8916 38.9569 13.5442C38.8044 13.2629 38.7138 12.9429 38.6852 12.5848H45.4482C45.4722 12.4263 45.4847 12.2709 45.4847 12.1187V11.7073C45.4847 10.8424 45.2906 10.0719 44.9036 9.39598C44.5165 8.72001 43.9771 8.1868 43.2875 7.79738C42.5979 7.40796 41.805 7.21273 40.9089 7.21273C39.9647 7.21273 39.1363 7.42055 38.4217 7.83411C37.707 8.24767 37.153 8.81763 36.7597 9.54188C36.3654 10.2661 36.1692 11.1279 36.1692 12.0537C36.1692 12.9795 36.3685 13.7929 36.7681 14.493C37.1677 15.1942 37.7237 15.739 38.4384 16.1284ZM38.7407 11.0502C38.7904 10.7919 38.8685 10.5638 38.9746 10.3658C39.1749 9.99428 39.4441 9.71402 39.7832 9.52508C40.1222 9.33615 40.4968 9.24168 40.9089 9.24168C41.466 9.24168 41.9292 9.40648 42.2985 9.73501C42.6678 10.0635 42.8702 10.5023 42.9067 11.0502H38.7407ZM50.7856 16.713C49.8529 16.713 49.0297 16.5178 48.3161 16.1284C47.6015 15.739 47.0454 15.1942 46.6458 14.493C46.2463 13.7929 46.047 12.9795 46.047 12.0537C46.047 11.1279 46.2431 10.2661 46.6375 9.54188C47.0308 8.81763 47.5848 8.24767 48.2994 7.83411C49.0141 7.42055 49.8425 7.21273 50.7866 7.21273C51.6828 7.21273 52.4757 7.40796 53.1653 7.79738C53.8549 8.1868 54.3943 8.72001 54.7813 9.39598C55.1684 10.0719 55.3624 10.8424 55.3624 11.7073V12.1187C55.3624 12.2709 55.3499 12.4263 55.3259 12.5848H48.5629C48.5916 12.9429 48.6822 13.2629 48.8347 13.5442C49.0224 13.8916 49.2822 14.1592 49.615 14.3482C49.9478 14.5371 50.3328 14.6316 50.7678 14.6316C51.2029 14.6316 51.5482 14.5371 51.8393 14.3482C52.1304 14.1592 52.3536 13.9126 52.5112 13.6082H55.1079C54.9263 14.1928 54.6332 14.7198 54.2274 15.1889C53.8215 15.6581 53.3249 16.0297 52.7386 16.3037C52.1512 16.5776 51.5002 16.7151 50.7866 16.7151L50.7856 16.713ZM48.8524 10.3658C48.7462 10.5638 48.6682 10.7919 48.6184 11.0502H52.7845C52.748 10.5023 52.5456 10.0635 52.1763 9.73501C51.8069 9.40648 51.3437 9.24168 50.7866 9.24168C50.3745 9.24168 50 9.33615 49.6609 9.52508C49.3219 9.71402 49.0527 9.99428 48.8524 10.3658ZM56.2691 20.2388V20.2398L56.268 20.2388H56.2691ZM56.2691 20.2388V7.43316H58.4297L58.6112 8.93099H58.6655C58.8835 8.57831 59.1433 8.27287 59.4458 8.0178C59.7484 7.76169 60.1021 7.56436 60.5079 7.42371C60.9137 7.2841 61.3644 7.21378 61.861 7.21378C62.7082 7.21378 63.4499 7.41741 64.0853 7.82572C64.7206 8.23403 65.2204 8.79664 65.5834 9.51564C65.9465 10.2346 66.128 11.0502 66.128 11.9634C66.128 12.8766 65.9496 13.7079 65.5928 14.4206C65.236 15.1333 64.7332 15.6938 64.0853 16.1011C63.4374 16.5094 62.6779 16.713 61.8068 16.713C61.1286 16.713 60.5361 16.585 60.0269 16.3289C59.5189 16.0727 59.113 15.7442 58.8105 15.3422V20.2388H56.2691ZM62.416 14.2558C62.0582 14.4815 61.6378 14.5938 61.1537 14.5938C60.6811 14.5938 60.2638 14.4815 59.9007 14.2558C59.5376 14.0301 59.2528 13.7226 59.0473 13.3332C58.8407 12.9438 58.7385 12.4746 58.7385 11.9634C58.7385 11.4522 58.8418 11.0009 59.0473 10.6115C59.2528 10.222 59.5376 9.9145 59.9007 9.68883C60.2638 9.46316 60.6696 9.35084 61.1537 9.35084C61.6378 9.35084 62.0592 9.46316 62.416 9.68883C62.7728 9.9145 63.0514 10.222 63.2517 10.6115C63.451 11.0009 63.5511 11.4701 63.5511 11.9812C63.5511 12.4924 63.451 12.9438 63.2517 13.3332C63.0514 13.7236 62.7728 14.0301 62.416 14.2558ZM68.6173 16.4937V3.70588H71.1598V16.4937H68.6173ZM74.6276 7.43316H72.4482V16.4936L72.4472 16.4957H74.9896V11.8186C74.9896 11.3074 75.0773 10.8686 75.2525 10.5034C75.4278 10.1381 75.6761 9.85782 75.9975 9.66259C76.3188 9.46736 76.6787 9.36974 77.0783 9.36974C77.7324 9.36974 78.204 9.56812 78.4951 9.96384C78.7861 10.3595 78.9312 10.9285 78.9312 11.6716V16.4947H81.4736V11.4344C81.4736 10.5212 81.3349 9.75076 81.0563 9.12307C80.7777 8.49539 80.3782 8.02095 79.8576 7.69766C79.337 7.37542 78.6891 7.21378 77.9505 7.21378C77.2118 7.21378 76.5911 7.36598 76.0893 7.67037C75.5864 7.97477 75.191 8.39567 74.8999 8.93099H74.8457L74.6276 7.43316ZM86.0129 16.4937V5.77052H82.3083V3.70588H92.259V5.77052H88.5544V16.4947H86.0119L86.0129 16.4937ZM92.3863 16.3477C92.8579 16.5913 93.4578 16.713 94.1839 16.713V16.712C94.5219 16.712 94.8432 16.6784 95.1458 16.6112C95.4483 16.544 95.7269 16.4401 95.9815 16.3005C96.236 16.1599 96.4718 15.993 96.6898 15.7977C96.9079 15.6036 97.1009 15.3716 97.271 15.1039H97.3252L97.6163 16.4926H99.7227V10.9211C99.7227 10.1171 99.5505 9.44111 99.2052 8.8932C98.8599 8.34529 98.3695 7.92858 97.7342 7.64203C97.0988 7.35653 96.3445 7.21273 95.4734 7.21273C94.6868 7.21273 93.9846 7.35023 93.367 7.62419C92.7504 7.89815 92.257 8.27916 91.8876 8.76619C91.5183 9.25323 91.3034 9.83158 91.2429 10.5013H93.6946C93.7666 10.0751 93.9669 9.76126 94.2934 9.56077C94.62 9.36029 95.0133 9.25953 95.4734 9.25953C95.8605 9.25953 96.1807 9.32985 96.4353 9.46945C96.6898 9.61011 96.8776 9.82004 96.9987 10.1003C97.1197 10.3805 97.1802 10.7395 97.1802 11.1783H94.9288C94.0326 11.1783 93.2971 11.2969 92.7222 11.5341C92.1474 11.7724 91.7176 12.104 91.4328 12.5302C91.1479 12.9564 91.0061 13.4434 91.0061 13.9913C91.0061 14.4909 91.1177 14.9475 91.342 15.3611C91.5663 15.7757 91.9137 16.1042 92.3863 16.3477ZM95.8187 14.5854C95.5756 14.6893 95.2981 14.7408 94.983 14.7408V14.7397C94.7285 14.7397 94.5052 14.704 94.3112 14.6305C94.1171 14.5581 93.9658 14.4479 93.8573 14.302C93.7478 14.1561 93.6936 13.9735 93.6936 13.7541C93.6936 13.5589 93.7447 13.3825 93.8479 13.224C93.9512 13.0655 94.1171 12.9406 94.3477 12.8493C94.5772 12.759 94.8672 12.7128 95.2188 12.7128H97.0706C97.0341 12.9931 96.9642 13.2545 96.862 13.498C96.7597 13.7415 96.6199 13.9577 96.4447 14.1467C96.2694 14.3356 96.0607 14.4825 95.8187 14.5854ZM100.121 16.4937L103.444 11.9624L100.121 7.43211H102.863L105.042 10.4834H105.097L107.276 7.43211H110L106.677 11.9624L110 16.4937H107.276L105.097 13.4245H105.042L102.863 16.4937H100.121Z" fill="#57BC97"/>
</svg>
