<svg width="906" height="796" viewBox="0 0 906 796" fill="none" xmlns="http://www.w3.org/2000/svg">
<rect width="906" height="796" fill="#57BC97"/>
<mask id="mask0_2328_50165" style="mask-type:alpha" maskUnits="userSpaceOnUse" x="0" y="0" width="906" height="796">
<rect width="906" height="796" fill="#57BC97"/>
</mask>
<g mask="url(#mask0_2328_50165)">
<path d="M782.772 572.965C733.812 528.809 717.901 501.392 791.063 456.55C940.882 364.73 989.99 206.488 937.849 35.0461C934.182 22.9808 930.022 11.2914 925.406 0H228.936C223.856 12.2643 219.291 25.1109 215.242 38.5323C199.339 91.2231 200.001 148.896 191.807 214.485C116.562 141.887 41.4351 76.5855 -20.0271 0H-337.682C-300.384 105.33 -217.614 185.07 -146.368 271.841C-382.093 381.866 -459.031 518.174 -409.849 727.08C-404.129 751.372 -396.28 774.39 -386.495 796H280.54C311.874 729.276 334.845 644.974 350.785 541.103C443.354 630.911 539.545 705.831 617.963 796H939.189C907.817 708.138 852.098 635.481 782.772 572.965ZM68.0726 593.167C68.0137 595.393 67.8812 597.604 67.6676 599.793C61.0635 669.583 27.8586 735.762 -50.0366 737.818C-111.322 739.447 -148.554 700.782 -148.201 635.378C-147.737 550.626 -66.1016 522.206 7.68539 528.529C22.2926 529.782 37.4593 532.856 48.7902 542.172C63.3385 554.141 68.5659 574.078 68.0726 593.167ZM685.617 160.482C678.556 252.479 574.443 254.16 505.39 263.918C499.773 264.714 493.949 265.171 488.221 264.957C479.084 264.604 470.205 262.51 462.835 257.263C452.159 249.649 446.564 236.633 444.127 223.742C427.893 137.892 479.997 49.5215 573.162 47.4873C645.646 45.9027 691.485 83.919 685.617 160.482Z" fill="#204F56"/>
</g>
</svg>
