<svg width="39" height="38" viewBox="0 0 39 38" fill="none" xmlns="http://www.w3.org/2000/svg">
<path fill-rule="evenodd" clip-rule="evenodd" d="M26.8628 0H12.1372C5.71011 0 0.5 5.21015 0.5 11.6372V26.3628C0.5 32.7899 5.71011 38 12.1372 38H26.8628C33.2899 38 38.5 32.7899 38.5 26.3628V11.6372C38.5 5.21015 33.2899 0 26.8628 0ZM14.1566 29.5698C18.0128 29.4362 20.0322 27.0852 20.8893 21.5067C21.4851 22.0842 22.0895 22.6266 22.6838 23.1599C24.4335 24.73 26.0961 26.2219 27.1969 28.3037C28.0154 29.8505 29.8043 29.2892 31.0253 28.865C31.9968 28.5284 31.6662 27.4658 31.4015 26.615C31.3758 26.5325 31.3508 26.4521 31.3276 26.3745C30.8132 24.6507 29.7742 23.2527 28.4546 22.0634C27.5978 21.2917 27.3188 20.8123 28.6 20.0272C31.224 18.4204 32.0842 15.6527 31.1706 12.6527C30.3788 10.052 28.2977 8.45186 25.6769 8.42848C21.7466 8.3934 19.4132 9.74637 18.5162 12.7129C18.328 13.335 18.272 13.9967 18.2115 14.7138C18.1823 15.0595 18.152 15.4181 18.1053 15.7913C17.8037 15.5005 17.5022 15.2165 17.2037 14.9353L17.201 14.9327C15.4736 13.3052 13.8451 11.7708 12.8671 9.57433C12.2801 8.25839 10.9923 8.51169 9.84517 8.73733C9.57558 8.79037 9.31368 8.84187 9.07049 8.87112C7.95209 9.00522 8.19351 9.75427 8.41139 10.4301C8.47306 10.6214 8.53281 10.8068 8.55935 10.9707C8.87797 12.953 10.1343 14.4067 11.3948 15.8653L11.396 15.8666C11.6613 16.1737 11.9269 16.481 12.1839 16.7935C8.0566 18.7177 6.70859 21.1029 7.5705 24.7576C8.28205 27.7826 10.8844 29.6834 14.1566 29.5698ZM23.2967 16.6732C23.3969 16.6766 23.4987 16.6682 23.5973 16.6549C23.7273 16.6365 23.8645 16.6198 24.0059 16.6026C25.1792 16.4598 26.644 16.2814 26.7543 14.8459C26.8578 13.5063 26.0544 12.8415 24.7849 12.8699C23.153 12.905 22.241 14.4517 22.525 15.9533C22.5684 16.1788 22.6653 16.406 22.8523 16.5396C22.981 16.6315 23.1363 16.6682 23.2967 16.6749V16.6732ZM15.9389 22.4141C15.9472 22.0801 15.8554 21.731 15.6015 21.5222C15.4027 21.3585 15.1371 21.305 14.8815 21.2833C13.5887 21.1731 12.1589 21.6692 12.1522 23.1524C12.1455 24.2966 12.7986 24.9731 13.871 24.9447C15.2356 24.9079 15.8169 23.7504 15.9322 22.5294C15.9355 22.491 15.9389 22.4526 15.9389 22.4141Z" fill="#57BC97"/>
</svg>
