<svg width="223" height="167" viewBox="0 0 223 167" fill="none" xmlns="http://www.w3.org/2000/svg">
<g opacity="0.4">
<path d="M45.6901 67.2401L56.4836 67.0124M19.9384 54.0871L15.8789 46.522H141.415L145.779 55.0975" stroke="#57BC97" stroke-miterlimit="10"/>
<path d="M1.11523 49.947L38.999 58.2787L51.4413 74.9421L12.2575 66.4252L1.11523 49.947Z" stroke="#57BC97" stroke-miterlimit="10"/>
<path d="M63.9129 55.2236H187.221L175.15 74.8494H51.4707L63.9129 55.2236Z" stroke="#57BC97" stroke-miterlimit="10"/>
<path d="M12.3506 66.3328V151.686L51.5343 165.387V74.8496L12.3506 66.3328Z" stroke="#57BC97" stroke-miterlimit="10"/>
<path d="M174.036 165.387L175.15 74.8496H51.4707V165.387H174.036Z" stroke="#57BC97" stroke-miterlimit="10"/>
<path d="M128.446 29.3894C134.027 28.7248 137.126 29.4096 138.809 30.2166C139.664 30.627 140.159 31.0715 140.435 31.3933C140.573 31.555 140.659 31.6881 140.707 31.7742C140.708 31.7755 140.708 31.7768 140.709 31.7781L136.507 54.7234H122.147L128.446 29.3894Z" fill="#57BC97" stroke="#57BC97"/>
<path d="M176.086 16.6199C178.921 16.5531 182.3 17.0369 184.836 19.1091V45.0007C184.836 47.6607 184.036 50.2601 182.538 52.4636V52.4646L181.171 54.4763H160.407L164.311 51.3933C167.481 48.8879 169.446 45.1619 169.718 41.1345L171.325 17.2312C171.339 17.2279 171.353 17.2249 171.368 17.2214C171.62 17.1614 171.988 17.0804 172.446 16.9968C173.365 16.8295 174.644 16.6538 176.086 16.6199Z" fill="#57BC97" stroke="#57BC97"/>
<path d="M139.651 26.9885L139.421 30.6532L130.811 29.4805L131.137 26.071" stroke="#57BC97" stroke-miterlimit="10"/>
<path d="M156.643 24.6743C156.175 25.6074 148.756 25.3649 142.871 26.2518C141.755 26.4202 140.693 26.6295 139.744 26.8961L137.673 25.376C136.813 24.7428 135.679 24.6206 134.702 25.052C133.655 25.513 132.258 26.0148 131.168 25.9999C129.159 25.9703 130.273 16.5278 130.273 16.5278L130.332 16.1704L130.644 14.306C130.644 14.306 135.473 13.3802 137.887 14.306C140.301 15.2317 142.529 17.4535 144.201 17.6386C145.872 17.8238 152.929 18.7495 156.086 21.8971C156.086 21.8971 156.741 22.8783 156.795 23.8374C156.812 24.1281 156.773 24.4151 156.643 24.6743Z" stroke="#57BC97" stroke-miterlimit="10"/>
<path d="M142.402 26.4121L147.172 23.0081L143.725 17.5388" stroke="#57BC97" stroke-miterlimit="10"/>
<path d="M144.453 31.716C144.7 30.4348 144.939 28.1464 144.2 25.8542C144.2 25.8542 142.241 29.9312 143.251 31.903C143.528 32.4418 144.338 32.3122 144.451 31.7179L144.453 31.716Z" stroke="#57BC97" stroke-miterlimit="10"/>
<path d="M147.915 30.17C148.287 30.1904 147.358 27.3928 144.201 25.9116C144.201 25.9116 144.573 29.9849 147.915 30.17Z" stroke="#57BC97" stroke-miterlimit="10"/>
<path d="M133.399 14.457C134.908 14.3414 136.616 14.3539 137.708 14.7725C138.854 15.212 139.965 15.9629 141.051 16.6689C141.584 17.0156 142.114 17.3527 142.62 17.6143C143.123 17.8741 143.64 18.0796 144.146 18.1357C144.97 18.227 147.123 18.5015 149.455 19.1396C151.787 19.7778 154.212 20.7586 155.697 22.2168C155.712 22.241 155.733 22.2751 155.758 22.3174C155.78 22.3553 155.804 22.4002 155.831 22.4502C154.321 21.4589 152.41 20.7104 150.561 20.1553C148.103 19.4174 145.677 18.9971 144.268 18.8096C142.984 18.639 141.852 18.039 140.745 17.3721C139.676 16.7281 138.57 15.9762 137.462 15.6748C136.353 15.3732 134.524 15.3839 133.041 15.4561C132.286 15.4928 131.596 15.5478 131.095 15.5928C131.039 15.5978 130.985 15.6027 130.934 15.6074L131.079 14.7383C131.197 14.7189 131.342 14.6957 131.51 14.6709C131.992 14.5998 132.66 14.5138 133.399 14.457Z" fill="#57BC97" stroke="#57BC97"/>
<path d="M175.723 13.4141V16.1339L178.557 19.8943L185.428 18.9685V16.773" stroke="#57BC97" stroke-miterlimit="10"/>
<path d="M204.064 19.4536C203.04 20.3683 201.272 20.5312 199.913 20.6349C197.499 20.82 187.657 17.1171 185.985 17.1171C184.314 17.1171 183.942 12.1181 181.9 11.7478C179.857 11.3775 178.186 14.1547 176.514 13.9696C174.843 13.7844 174.843 11.9329 174.843 11.9329V3.60124C174.843 3.60124 174.795 3.43275 174.873 3.16614C175.01 2.69031 175.543 1.90528 177.443 1.19431C180.414 0.083416 184.685 0.638861 184.685 0.638861C184.685 0.638861 203.07 11.1923 204.556 15.6359C205.206 17.5799 204.86 18.7445 204.064 19.4536Z" stroke="#57BC97" stroke-miterlimit="10"/>
<path d="M187.47 17.4872C187.47 17.4872 194.155 16.1912 193.969 14.5248C193.784 12.8585 189.009 10.3201 191.119 4.55273" stroke="#57BC97" stroke-miterlimit="10"/>
<path d="M189.111 17.863C189.111 17.863 190.629 22.4862 192.486 22.6713C194.343 22.8565 191.681 18.6092 189.111 17.863Z" stroke="#57BC97" stroke-miterlimit="10"/>
<path d="M188.646 23.2603C188.098 22.2346 187.73 20.459 189.142 17.8577C189.142 17.8577 190.718 20.7386 190.115 23.0863C189.935 23.7898 188.987 23.9009 188.646 23.2603Z" stroke="#57BC97" stroke-miterlimit="10"/>
<path d="M182.178 1C182.882 1 183.496 1.03441 183.933 1.06836C184.151 1.0853 184.324 1.1017 184.442 1.11426C184.473 1.11752 184.5 1.12044 184.523 1.12305C184.555 1.14101 184.594 1.16327 184.641 1.19043C184.775 1.26838 184.973 1.38409 185.225 1.53223C185.729 1.82849 186.45 2.25721 187.321 2.78516C189.064 3.84161 191.402 5.2952 193.785 6.88672C196.17 8.4796 198.59 10.2042 200.503 11.8018C201.459 12.6007 202.28 13.3609 202.903 14.0508C203.535 14.7503 203.929 15.3387 204.081 15.7939C204.389 16.7161 204.445 17.4076 204.358 17.9248C204.345 18.0027 204.327 18.0769 204.308 18.1484C204.256 17.943 204.195 17.722 204.124 17.4941C203.826 16.5405 203.311 15.3298 202.44 14.6797C201.698 14.1249 197.515 10.9739 193.168 7.8916C190.995 6.35082 188.776 4.82382 186.923 3.64551C185.997 3.0568 185.157 2.55113 184.456 2.17383C183.772 1.80582 183.169 1.53008 182.739 1.44434C181.23 1.14358 179.193 1.47792 177.598 1.85547C177.256 1.9363 176.93 2.0214 176.629 2.10352C176.898 1.95936 177.224 1.81043 177.617 1.66309C179.018 1.13919 180.758 1 182.178 1Z" fill="#57BC97" stroke="#57BC97"/>
<path d="M122.938 11.6212C123.68 10.8806 122.752 9.76967 125.723 8.47363" stroke="#57BC97" stroke-miterlimit="10"/>
<path d="M214.593 13.3439C215.672 14.5597 217.474 13.2232 219.211 17.9365" stroke="#57BC97" stroke-miterlimit="10"/>
<path d="M120.709 9.95508C121.08 9.58478 121.823 7.17785 124.609 6.43726" stroke="#57BC97" stroke-miterlimit="10"/>
<path d="M217.37 10.0466C217.91 10.6545 221.567 12.0203 222.461 16.3962" stroke="#57BC97" stroke-miterlimit="10"/>
<path d="M175.113 153.433L207.844 164.343L207.687 165.318H174.455V153.214L175.113 153.433Z" fill="#57BC97" stroke="#57BC97"/>
</g>
</svg>
