<?xml version="1.0" encoding="UTF-8"?>
<svg version="1.1" xmlns="http://www.w3.org/2000/svg" width="464" height="508">
<path d="M0 0 C153.12 0 306.24 0 464 0 C464 167.64 464 335.28 464 508 C310.88 508 157.76 508 0 508 C0 340.36 0 172.72 0 0 Z " fill="#FEFEFE" transform="translate(0,0)"/>
<path d="M0 0 C0.33 0.99 0.66 1.98 1 3 C1.6290625 3.02578125 2.258125 3.0515625 2.90625 3.078125 C9.23015102 3.49717868 13.50558326 4.8457978 19 8 C19.33 7.34 19.66 6.68 20 6 C20.00834727 14.02463288 19.98412258 22.04825934 19.9197216 30.07260609 C19.89080168 33.79979257 19.87258525 37.52635662 19.87988281 41.25366211 C19.88653063 44.85922846 19.8636881 48.46357083 19.82144547 52.0688839 C19.81040989 53.4357536 19.8095268 54.80274892 19.81957626 56.16962624 C19.88162073 65.86062284 18.27397282 71.82625881 13 80 C16.96 80 20.92 80 25 80 C23.44457739 83.88855652 21.96850742 86.86446891 19.76953125 90.3515625 C18.81143555 91.87716797 18.81143555 91.87716797 17.83398438 93.43359375 C17.16689453 94.48675781 16.49980469 95.53992188 15.8125 96.625 C14.84086914 98.16994141 14.84086914 98.16994141 13.84960938 99.74609375 C13.20443359 100.77089844 12.55925781 101.79570312 11.89453125 102.8515625 C10.93111816 104.40399658 10.93111816 104.40399658 9.94824219 105.98779297 C8 109 8 109 5.98144531 111.64111328 C0.08573738 119.62482181 0.03563097 127.08415096 0.125 136.625 C0.11481671 138.38153411 0.10097439 140.13804979 0.08398438 141.89453125 C0.04864598 146.05250547 0.03362299 150.21004617 0.02832031 154.36816406 C-0.00385409 167.89274041 -0.22300059 181.41642561 -0.39888573 194.93972969 C-0.47784074 201.07123252 -0.54582909 207.20278791 -0.60888672 213.33447266 C-0.83307819 234.56609604 -1.28423259 255.77911124 -2 277 C-0.96832703 277.12734024 0.06334595 277.25468048 1.12628174 277.38587952 C4.59942723 277.93649514 7.65259946 278.71715 10.97949219 279.82592773 C12.11046326 280.19979111 13.24143433 280.57365448 14.40667725 280.95884705 C15.6079425 281.36301346 16.80920776 281.76717987 18.046875 282.18359375 C19.29502991 282.59916031 20.54318481 283.01472687 21.8291626 283.44288635 C24.45950033 284.31920608 27.08840401 285.1996633 29.71630859 286.08325195 C33.08203313 287.21465312 36.45081073 288.33662382 39.82065964 289.45567226 C43.0434375 290.52705634 46.26381777 291.60555237 49.484375 292.68359375 C50.69373718 293.08573593 51.90309937 293.48787811 53.14910889 293.90220642 C54.26747131 294.27922195 55.38583374 294.65623749 56.53808594 295.04467773 C57.52290955 295.37475327 58.50773315 295.7048288 59.5223999 296.04490662 C62 297 62 297 65 299 C65 300.32 65 301.64 65 303 C25.58611432 303.34506602 -13.82757084 303.60851479 -53.2426713 303.76597994 C-57.92024687 303.78473539 -62.59781947 303.80415073 -67.27539062 303.82397461 C-68.67193055 303.82987659 -68.67193055 303.82987659 -70.0966834 303.83589781 C-85.07435242 303.90076089 -100.05113746 304.01879662 -115.02828608 304.15729194 C-130.45310283 304.29871273 -145.87746415 304.38112008 -161.30290234 304.41132742 C-169.9436437 304.42987309 -178.58254296 304.47399459 -187.22262192 304.58595085 C-222.75176302 305.03288252 -255.0020993 305.30900607 -287.8882637 289.8481617 C-294.60327701 286.7394111 -301.66442049 284.54726329 -308.6875 282.25 C-310.94220287 281.48672417 -313.19627077 280.72156527 -315.44921875 279.953125 C-316.36018311 279.64536133 -317.27114746 279.33759766 -318.2097168 279.02050781 C-321.53078613 277.80587225 -324.75409832 276.40179608 -328 275 C-327.98579608 274.14213363 -327.97159216 273.28426725 -327.95695782 272.40040493 C-327.6162833 251.37665214 -327.395614 230.35449283 -327.30309582 209.32813168 C-327.25555485 199.15885843 -327.16969127 188.99279478 -326.98852539 178.82495117 C-326.83043216 169.94627819 -326.74941342 161.07054088 -326.75510865 152.19041163 C-326.75557732 147.50122442 -326.72145835 142.81894131 -326.59447289 138.13133049 C-325.90490361 111.45404063 -330.78218103 95.02124197 -348.10828114 74.42763615 C-350 72 -350 72 -350 70 C-342.37464521 70.76060988 -334.97873613 72.42462639 -327.5 74.0625 C-326.1875693 74.3473247 -324.87506978 74.6318325 -323.5625 74.91601562 C-320.37432412 75.60756848 -317.18706847 76.30336137 -314 77 C-317.465 70.07 -317.465 70.07 -321 63 C-249.06 63 -177.12 63 -103 63 C-102.67 60.03 -102.34 57.06 -102 54 C-101.59071413 52.04248554 -101.13783936 50.09312639 -100.625 48.16015625 C-100.36203125 47.16048828 -100.0990625 46.16082031 -99.828125 45.13085938 C-99.55484375 44.11830078 -99.2815625 43.10574219 -99 42.0625 C-98.72671875 41.02287109 -98.4534375 39.98324219 -98.171875 38.91210938 C-96.15260922 31.30521845 -96.15260922 31.30521845 -95 29 C-94.360625 28.855625 -93.72125 28.71125 -93.0625 28.5625 C-90.61789145 28.13834965 -90.61789145 28.13834965 -89 25 C-89 25.99 -89 26.98 -89 28 C-88.443125 27.97679688 -87.88625 27.95359375 -87.3125 27.9296875 C-81.82390985 27.79988976 -77.2706649 28.46671566 -72 30 C-72 30.66 -72 31.32 -72 32 C-71.01 32.33 -70.02 32.66 -69 33 C-69.4593946 43.2215298 -71.78289017 53.04878609 -74 63 C-73.07703125 62.90203125 -72.1540625 62.8040625 -71.203125 62.703125 C-68 63 -68 63 -66.171875 65.046875 C-65.70265625 65.93890625 -65.2334375 66.8309375 -64.75 67.75 C-64.27046875 68.63171875 -63.7909375 69.5134375 -63.296875 70.421875 C-62.65492188 71.69804687 -62.65492188 71.69804687 -62 73 C-61.41992188 74.05960938 -61.41992188 74.05960938 -60.828125 75.140625 C-60 77 -60 77 -60 80 C-56.07011541 80.08061104 -52.14472272 80.10000889 -48.21411133 80.06713867 C-46.23436627 80.06260727 -44.25468483 80.10399329 -42.27539062 80.14648438 C-33.86469589 80.04001988 -28.90498447 78.53837664 -22.45825195 73.10327148 C-15.64980502 64.50835949 -13.1018315 56.0829802 -12.57421875 45.26953125 C-12.49629593 44.11249191 -12.41837311 42.95545258 -12.33808899 41.76335144 C-12.09695497 38.11412614 -11.89099135 34.46399899 -11.6875 30.8125 C-11.45869291 27.12253554 -11.22272169 23.43311352 -10.98335266 19.74382019 C-10.83756127 17.45842352 -10.69931671 15.17253074 -10.56925964 12.88618469 C-10.50861832 11.86389267 -10.44797699 10.84160065 -10.38549805 9.78833008 C-10.30938545 8.43364372 -10.30938545 8.43364372 -10.23173523 7.05158997 C-10 5 -10 5 -9 4 C-6.34536879 3.54540142 -3.67810862 3.29756762 -1 3 C-0.67 2.01 -0.34 1.02 0 0 Z M-247 122 C-247 181.07 -247 240.14 -247 301 C-166.81 301 -86.62 301 -4 301 C-2.99727789 241.3380347 -2 181.67039095 -2 122 C-82.85 122 -163.7 122 -247 122 Z " fill="#BCE4D5" transform="translate(362,64)"/>
<path d="M0 0 C6.77568097 0.615971 12.49940608 1.154331 18.96484375 2.63671875 C19.67336487 2.79678406 20.38188599 2.95684937 21.11187744 3.12176514 C23.38858506 3.63732224 25.66299416 4.16232365 27.9375 4.6875 C30.32527412 5.23104606 32.71359709 5.77212786 35.102005 6.31288147 C36.7108084 6.67714786 38.31944122 7.04216843 39.92790222 7.40794373 C45.12620657 8.58732412 50.33155714 9.72649628 55.546875 10.828125 C56.20381851 10.96704666 56.86076202 11.10596832 57.53761292 11.24909973 C60.61837001 11.89917978 63.70016199 12.54398693 66.78295898 13.18432617 C68.39666382 13.52427612 68.39666382 13.52427612 70.04296875 13.87109375 C70.98164795 14.06630615 71.92032715 14.26151855 72.88745117 14.46264648 C75 15 75 15 76 16 C76.09710514 18.29090094 76.12186587 20.58486541 76.12025452 22.87782288 C76.12110894 23.60554962 76.12196337 24.33327637 76.12284368 25.08305544 C76.12450064 27.53985113 76.11897362 29.99657966 76.11352539 32.45336914 C76.11324354 34.20718891 76.11340121 35.96100879 76.1139679 37.71482849 C76.11425595 42.49148669 76.10835795 47.26812 76.10139394 52.04477239 C76.09516171 57.03094054 76.09455671 62.0171092 76.09336853 67.00328064 C76.09025482 76.45223294 76.08204091 85.90117374 76.07201904 95.35012096 C76.06085912 106.10447244 76.05534776 116.85882446 76.05032361 127.61318028 C76.03985833 149.74212662 76.02225813 171.87106259 76 194 C74.56704111 193.69034659 73.13460551 193.37827104 71.70239258 193.06518555 C70.9046492 192.89166061 70.10690582 192.71813568 69.2849884 192.53935242 C66.32864445 191.84153213 63.53315808 190.87193814 60.6875 189.8125 C59.47320312 189.36777344 58.25890625 188.92304688 57.0078125 188.46484375 C56.35844727 188.22620605 55.70908203 187.98756836 55.04003906 187.74169922 C51.39377909 186.41602452 47.72677201 185.14983868 44.0625 183.875 C35.5343345 180.89700519 27.01537416 177.89313858 18.50045776 174.87750244 C17.08633312 174.37684218 15.67204733 173.87663683 14.25759888 173.37689209 C12.26242185 172.67181386 10.26785287 171.96504184 8.2734375 171.2578125 C7.11247559 170.8467627 5.95151367 170.43571289 4.75537109 170.01220703 C2 169 2 169 0 168 C0 112.56 0 57.12 0 0 Z " fill="#FEFEFE" transform="translate(37,170)"/>
<path d="M0 0 C2.40494163 0.00282135 4.80989187 0.00123622 7.21482849 -0.00442505 C12.38864517 -0.0067006 17.56132891 0.02161606 22.73480034 0.07795334 C30.21455771 0.15935208 37.69370591 0.18528018 45.17385817 0.19783325 C57.31058772 0.21970009 69.44664379 0.28619485 81.58300781 0.38085938 C93.36975747 0.47270107 105.15632397 0.5434595 116.94335938 0.5859375 C117.67034723 0.58856473 118.39733509 0.59119197 119.14635288 0.59389882 C122.79357067 0.60694954 126.44078976 0.61958654 130.08800972 0.63201785 C160.32811684 0.73562427 190.56740719 0.91244621 220.80688477 1.13525391 C219.84560724 2.90442275 218.88351091 4.67314671 217.92106628 6.44168091 C217.38538623 7.42668642 216.84970617 8.41169193 216.29779339 9.4265461 C214.76574124 12.21000416 213.16691612 14.93341018 211.48266602 17.62744141 C210.6521875 18.96162109 210.6521875 18.96162109 209.80493164 20.32275391 C209.24870117 21.20962891 208.6924707 22.09650391 208.11938477 23.01025391 C206.99022229 24.8199899 205.86130773 26.6298806 204.73266602 28.43994141 C203.99657104 29.61532471 203.99657104 29.61532471 203.24560547 30.81445312 C201.72305737 33.10446946 201.72305737 33.10446946 200.82083416 35.74272442 C198.80688477 38.13525391 198.80688477 38.13525391 196.92497027 38.59327948 C194.31970721 38.77032093 191.75612824 38.77678867 189.14497375 38.73652649 C188.14194015 38.74079861 187.13890655 38.74507074 186.10547799 38.74947232 C182.72856253 38.75773918 179.35287613 38.73015522 175.97607422 38.70288086 C173.5618696 38.7014712 171.14766284 38.70226077 168.73345947 38.70509338 C163.52774887 38.7062337 158.32231864 38.69200941 153.1166935 38.66390419 C145.59023651 38.62329519 138.06393109 38.61024969 130.53737643 38.60396423 C118.3265896 38.59301691 106.11596964 38.55973099 93.90527344 38.51245117 C82.04265173 38.46656682 70.18007532 38.43116945 58.31738281 38.40991211 C57.58635707 38.40859849 56.85533132 38.40728487 56.10215328 38.40593145 C52.43486801 38.39940634 48.76758242 38.39308778 45.10029662 38.38687193 C14.66903986 38.33502532 -15.76201455 38.24657701 -46.19311523 38.13525391 C-44.80054626 34.55135141 -43.25396122 31.42981732 -41.18139648 28.18603516 C-40.5877832 27.2546875 -39.99416992 26.32333984 -39.38256836 25.36376953 C-38.76317383 24.40148437 -38.1437793 23.43919922 -37.50561523 22.44775391 C-36.90555664 21.50480469 -36.30549805 20.56185547 -35.68725586 19.59033203 C-33.87472391 16.75764247 -32.05722049 13.9344116 -30.19311523 11.13525391 C-29.89087603 10.32743878 -29.58863682 9.51962366 -29.27723885 8.68732929 C-23.80136234 -2.90725982 -10.95250448 -0.17881513 0 0 Z " fill="#FEFEFE" transform="translate(162.193115234375,145.86474609375)"/>
<path d="M0 0 C0.33 0.99 0.66 1.98 1 3 C1.556875 2.97679688 2.11375 2.95359375 2.6875 2.9296875 C8.17609015 2.79988976 12.7293351 3.46671566 18 5 C18 5.66 18 6.32 18 7 C18.99 7.33 19.98 7.66 21 8 C20.5406054 18.2215298 18.21710983 28.04878609 16 38 C16.92296875 37.90332031 17.8459375 37.80664062 18.796875 37.70703125 C22 38 22 38 23.828125 40.01171875 C24.29734375 40.89472656 24.7665625 41.77773437 25.25 42.6875 C25.72953125 43.55761719 26.2090625 44.42773438 26.703125 45.32421875 C27.92595735 47.84723129 28.99984396 50.38166696 30 53 C29.01 53 28.02 53 27 53 C26.63648438 52.14535156 26.27296875 51.29070312 25.8984375 50.41015625 C25.14433594 48.75306641 25.14433594 48.75306641 24.375 47.0625 C23.88773437 45.96035156 23.40046875 44.85820312 22.8984375 43.72265625 C21.21622034 40.69092316 21.21622034 40.69092316 17.7890625 40.12109375 C16.40847656 40.06115234 16.40847656 40.06115234 15 40 C14.93941406 40.74765625 14.87882812 41.4953125 14.81640625 42.265625 C14.73261719 43.25046875 14.64882813 44.2353125 14.5625 45.25 C14.48128906 46.22453125 14.40007812 47.1990625 14.31640625 48.203125 C14 51 14 51 13 55 C20.92 54.505 20.92 54.505 29 54 C28.67 54.99 28.34 55.98 28 57 C-25.13 57 -78.26 57 -133 57 C-133 56.67 -133 56.34 -133 56 C-95.05 56 -57.1 56 -18 56 C-17.34 52.37 -16.68 48.74 -16 45 C-15.67 43.68 -15.34 42.36 -15 41 C-84.96 41 -154.92 41 -227 41 C-221.68806116 52.54644345 -221.68806116 52.54644345 -216.17602539 55.00488281 C-214.17148338 55.45400461 -214.17148338 55.45400461 -212.09765625 55.703125 C-211.3750914 55.84151794 -210.65252655 55.97991089 -209.9080658 56.12249756 C-207.63178663 56.54716834 -205.3512134 56.89930419 -203.0625 57.25 C-201.50370608 57.5278177 -199.94574172 57.81033298 -198.38867188 58.09765625 C-194.59985077 58.78635035 -190.80544412 59.41038379 -187 60 C-187.99 60.99 -187.99 60.99 -189 62 C-195.33129323 61.56682743 -201.4848911 60.13286932 -207.67578125 58.78515625 C-208.68158737 58.5693541 -209.68739349 58.35355194 -210.72367859 58.13121033 C-213.92065467 57.44485729 -217.11663369 56.75400041 -220.3125 56.0625 C-223.49777575 55.37515738 -226.6832646 54.68884342 -229.8691864 54.00450134 C-231.84421055 53.58007973 -233.8188586 53.15390244 -235.79304504 52.7256012 C-242.17364378 51.35203253 -248.57209477 50.13126969 -255 49 C-254.55624023 49.66563965 -254.11248047 50.3312793 -253.65527344 51.01708984 C-244.453125 64.8203125 -244.453125 64.8203125 -242.64257812 67.54394531 C-241.65630699 69.01866107 -240.6625856 70.48849181 -239.65429688 71.94824219 C-237 75.79861111 -237 75.79861111 -237 78 C-235.74316406 78.07734375 -234.48632812 78.1546875 -233.19140625 78.234375 C-225.51820907 79.00506311 -218.07094657 80.89388166 -210.57299805 82.63748169 C-206.12337576 83.67162214 -201.66923143 84.68583221 -197.21484375 85.69921875 C-196.33742523 85.89909897 -195.46000671 86.09897919 -194.55599976 86.30491638 C-183.74802079 88.75513398 -172.88628653 90.92680279 -162 93 C-162 92.34 -162 91.68 -162 91 C-161.34 91 -160.68 91 -160 91 C-159.34 91.66 -158.68 92.32 -158 93 C-157.54625 92.175 -157.0925 91.35 -156.625 90.5 C-156.08875 89.675 -155.5525 88.85 -155 88 C-154.34 88 -153.68 88 -153 88 C-154.875 92.75 -154.875 92.75 -156 95 C-75.81 95 4.38 95 87 95 C87 95.33 87 95.66 87 96 C6.81 96.33 -73.38 96.66 -156 97 C-156.33 156.07 -156.66 215.14 -157 276 C-76.81 276 3.38 276 86 276 C86 267.09 86 258.18 86 249 C86.33 249.99 86.66 250.98 87 252 C88.04889404 252.07871338 89.09778809 252.15742676 90.1784668 252.23852539 C96.40673557 253.02529986 102.22022284 255.18175568 108.14453125 257.18359375 C109.39127121 257.59916031 110.63801117 258.01472687 111.92253113 258.44288635 C114.54719999 259.31832425 117.17010015 260.19880946 119.79174805 261.08325195 C123.14925038 262.21570147 126.51021935 263.33741564 129.87247181 264.45567226 C133.08977466 265.52683783 136.30458484 266.60537545 139.51953125 267.68359375 C140.72575638 268.08573593 141.93198151 268.48787811 143.17475891 268.90220642 C144.28989365 269.27922195 145.40502838 269.65623749 146.55395508 270.04467773 C147.53576248 270.37475327 148.51756989 270.7048288 149.52912903 271.04490662 C152 272 152 272 155 274 C155 275.32 155 276.64 155 278 C115.58611432 278.34506602 76.17242916 278.60851479 36.7573287 278.76597994 C32.07975313 278.78473539 27.40218053 278.80415073 22.72460938 278.82397461 C21.32806945 278.82987659 21.32806945 278.82987659 19.9033166 278.83589781 C4.92564758 278.90076089 -10.05113746 279.01879662 -25.02828608 279.15729194 C-40.45310283 279.29871273 -55.87746415 279.38112008 -71.30290234 279.41132742 C-79.9436437 279.42987309 -88.58254296 279.47399459 -97.22262192 279.58595085 C-132.75176302 280.03288252 -165.0020993 280.30900607 -197.8882637 264.8481617 C-204.60327701 261.7394111 -211.66442049 259.54726329 -218.6875 257.25 C-220.94220287 256.48672417 -223.19627077 255.72156527 -225.44921875 254.953125 C-226.36018311 254.64536133 -227.27114746 254.33759766 -228.2097168 254.02050781 C-231.53078613 252.80587225 -234.75409832 251.40179608 -238 250 C-237.97869412 248.71320044 -237.97869412 248.71320044 -237.95695782 247.40040493 C-237.6162833 226.37665214 -237.395614 205.35449283 -237.30309582 184.32813168 C-237.25555485 174.15885843 -237.16969127 163.99279478 -236.98852539 153.82495117 C-236.83043216 144.94627819 -236.74941342 136.07054088 -236.75510865 127.19041163 C-236.75557732 122.50122442 -236.72145835 117.81894131 -236.59447289 113.13133049 C-235.90490361 86.45404063 -240.78218103 70.02124197 -258.10828114 49.42763615 C-260 47 -260 47 -260 45 C-252.37464521 45.76060988 -244.97873613 47.42462639 -237.5 49.0625 C-236.1875693 49.3473247 -234.87506978 49.6318325 -233.5625 49.91601562 C-230.37432412 50.60756848 -227.18706847 51.30336137 -224 52 C-226.31 47.38 -228.62 42.76 -231 38 C-159.06 38 -87.12 38 -13 38 C-12.67 35.03 -12.34 32.06 -12 29 C-11.59071413 27.04248554 -11.13783936 25.09312639 -10.625 23.16015625 C-10.36203125 22.16048828 -10.0990625 21.16082031 -9.828125 20.13085938 C-9.55484375 19.11830078 -9.2815625 18.10574219 -9 17.0625 C-8.72671875 16.02287109 -8.4534375 14.98324219 -8.171875 13.91210938 C-6.15260922 6.30521845 -6.15260922 6.30521845 -5 4 C-4.34 3.855625 -3.68 3.71125 -3 3.5625 C-2.34 3.376875 -1.68 3.19125 -1 3 C-0.67 2.01 -0.34 1.02 0 0 Z M-235 81 C-235 136.44 -235 191.88 -235 249 C-219.07215095 254.87463563 -219.07215095 254.87463563 -203.0625 260.5 C-200.84756798 261.26276455 -198.63272526 262.02578849 -196.41796875 262.7890625 C-195.34208496 263.1593457 -194.26620117 263.52962891 -193.15771484 263.91113281 C-188.39276797 265.55421794 -183.63298957 267.21189077 -178.875 268.875 C-178.08875244 269.14892578 -177.30250488 269.42285156 -176.49243164 269.70507812 C-172.84796065 270.97987193 -169.23106598 272.29499082 -165.6328125 273.6953125 C-162.17275938 275.16900133 -162.17275938 275.16900133 -159 275 C-159 216.26 -159 157.52 -159 97 C-162.83067341 95.72310886 -166.26572128 94.64013544 -170.15649414 93.81079102 C-171.13513931 93.60039688 -172.11378448 93.39000275 -173.12208557 93.17323303 C-174.1658989 92.95235519 -175.20971222 92.73147736 -176.28515625 92.50390625 C-177.92417152 92.15258888 -177.92417152 92.15258888 -179.59629822 91.79417419 C-183.0843565 91.04708054 -186.57337102 90.30457558 -190.0625 89.5625 C-193.51960526 88.82463986 -196.97649792 88.08579933 -200.43319702 87.34603882 C-202.65190215 86.8713595 -204.87083248 86.39773149 -207.08999634 85.92520142 C-213.58144936 84.53821664 -220.04610925 83.08765704 -226.48217773 81.46069336 C-229.55706563 80.82001512 -229.55706563 80.82001512 -235 81 Z " fill="#BEE5D6" transform="translate(272,89)"/>
<path d="M0 0 C70.62 0 141.24 0 214 0 C212.68 4.95 211.36 9.9 210 15 C208.57116989 14.97255707 207.14233978 14.94511414 205.67021179 14.9168396 C192.179193 14.66955956 178.68949839 14.51670023 165.19636822 14.45853233 C158.25945118 14.42623157 151.32591794 14.36062605 144.39038086 14.21484375 C137.69128866 14.07412714 130.99760572 14.0285863 124.29676247 14.04002762 C121.74609233 14.02902945 119.19535081 13.98658938 116.64575768 13.91166306 C103.52764511 13.01297197 103.52764511 13.01297197 91.87381363 17.78119659 C88.30457659 22.08007111 86.03629975 26.79490277 83.92658424 31.93496037 C82.68902469 34.6930577 81.07686923 36.81698496 79 39 C72.82295143 41.31570504 64.20980488 41.02581768 58 39 C53.12710534 35.33500508 50.1107314 30.03545352 47.3359375 24.69580078 C44.10630009 20.5961916 38.32655859 20.39507487 33.46875 19.5546875 C32.00357365 19.28041671 30.53873844 19.00431831 29.07421875 18.7265625 C26.78569258 18.29546918 24.49753799 17.87458156 22.20166016 17.484375 C9.45660403 15.29685196 9.45660403 15.29685196 5.9609375 12.18457031 C4.66181647 10.14156635 3.83219976 8.26940672 3 6 C2.01 4.02 1.02 2.04 0 0 Z " fill="#FEFEFE" transform="translate(44,129)"/>
<path d="M0 0 C8.07663481 0.72290867 15.70563443 2.44345499 23.56933594 4.37988281 C29.69877516 5.85963482 35.77316659 7.16797437 41.99865723 8.15592957 C71.90204879 12.90153449 71.90204879 12.90153449 79.09814453 21.38232422 C81.2172013 24.4196598 83.08210553 27.51159619 84.79589844 30.79394531 C86.64237217 34.17690085 88.99120379 37.1094885 91.375 40.125 C92.58507635 41.74870245 93.79419633 43.37312203 95 45 C91.03481967 46.32172678 88.05844768 45.31372958 84.1171875 44.375 C83.32232437 44.19305084 82.52746124 44.01110168 81.70851135 43.82363892 C79.0953599 43.22398939 76.4850355 42.61306154 73.875 42 C70.23929351 41.14923636 66.60268108 40.3025446 62.96484375 39.4609375 C62.04637161 39.24811127 61.12789948 39.03528503 60.18159485 38.81600952 C54.2292641 37.45588682 48.26752957 36.27936243 42.25390625 35.2265625 C40.02224402 34.8191011 37.79105388 34.40912459 35.55987549 33.99902344 C34.15950824 33.75223856 32.75616503 33.5217149 31.35028076 33.30859375 C20.58526837 31.67092555 20.58526837 31.67092555 16.78149414 27.66162109 C14.98244887 24.84754644 13.48698616 21.98892441 12 19 C10.92403112 17.32357571 9.82195234 15.66355121 8.69140625 14.0234375 C8.17255859 13.25128906 7.65371094 12.47914063 7.11914062 11.68359375 C6.054727 10.10500291 4.98958891 8.52690039 3.92382812 6.94921875 C3.41400391 6.18996094 2.90417969 5.43070313 2.37890625 4.6484375 C1.9207251 3.96958496 1.46254395 3.29073242 0.99047852 2.59130859 C0 1 0 1 0 0 Z " fill="#FEFEFE" transform="translate(16,137)"/>
<path d="M0 0 C6.85638757 3.05751988 12.9462535 7.61245964 19 12 C19.94214355 12.67071533 19.94214355 12.67071533 20.90332031 13.35498047 C39.40941587 26.5683954 39.40941587 26.5683954 40.37109375 32.15625 C40.54792306 38.39728463 40.54792306 38.39728463 38.125 41.0625 C30.03044134 43.4908676 22.78080876 41.78122526 15 39 C15.66 39.99 16.32 40.98 17 42 C17 43.32 17 44.64 17 46 C14.03 45.505 14.03 45.505 11 45 C10.67 45.99 10.34 46.98 10 48 C6.125 47.125 6.125 47.125 5 46 C4.86431681 42.33655389 4.83538574 39.49384279 6 36 C4.68 36 3.36 36 2 36 C1.67 36.99 1.34 37.98 1 39 C0.67 38.34 0.34 37.68 0 37 C-3.92717814 35.09459135 -7.99294234 34.25669186 -12.25 33.375 C-13.49265625 33.11460938 -14.7353125 32.85421875 -16.015625 32.5859375 C-18.6566525 31.9678905 -18.6566525 31.9678905 -20 32 C-21.19118817 26.62881332 -21.29641087 21.42087761 -21.375 15.9375 C-21.41238281 14.94427734 -21.44976562 13.95105469 -21.48828125 12.92773438 C-21.57673529 5.63027587 -21.57673529 5.63027587 -18.6015625 2.37890625 C-12.60913586 -0.79725982 -6.6965187 -1.66703432 0 0 Z " fill="#C7E8DB" transform="translate(381,35)"/>
<path d="M0 0 C2.82705783 1.2523907 5.2951831 2.77828912 7.9140625 4.41796875 C11.73895784 6.37883282 15.43825304 7.20101636 19.625 8.0625 C27.15487998 9.63890588 34.51069616 11.26604424 39 18 C39.3125 20.5625 39.3125 20.5625 39 23 C35.84685215 25.10209857 35.13896919 25.2434761 31.55078125 25.1953125 C30.27944336 25.18564453 30.27944336 25.18564453 28.98242188 25.17578125 C28.10134766 25.15902344 27.22027344 25.14226562 26.3125 25.125 C25.41982422 25.11597656 24.52714844 25.10695313 23.60742188 25.09765625 C21.40467686 25.07409748 19.20247412 25.04120329 17 25 C17 25.66 17 26.32 17 27 C17.99 27.33 18.98 27.66 20 28 C22 31 22 31 22 34 C20.33388095 34.042721 18.66617115 34.04063832 17 34 C16.67 33.67 16.34 33.34 16 33 C15.01 35.475 15.01 35.475 14 38 C12.68 37.67 11.36 37.34 10 37 C10 34.03 10 31.06 10 28 C8.35 27.67 6.7 27.34 5 27 C5 29.31 5 31.62 5 34 C4.67 33.34 4.34 32.68 4 32 C0.4164027 31.59260157 -3.14024924 31.30705119 -6.7421875 31.140625 C-8.9620317 30.95817205 -10.88789479 30.70950001 -13 30 C-16.79626247 25.35360926 -16.39082512 20.09602056 -16.25 14.375 C-16.24484375 13.529375 -16.2396875 12.68375 -16.234375 11.8125 C-16.14002847 4.33553786 -16.14002847 4.33553786 -15 1 C-10.5041803 -1.24790985 -4.86218233 -0.58259072 0 0 Z " fill="#C6E8DB" transform="translate(286,62)"/>
<path d="M0 0 C70.79778999 14.81814209 70.79778999 14.81814209 74 16 C74.495 17.485 74.495 17.485 75 19 C57.54658572 15.64407253 40.1910536 11.88880505 22.84204102 8.03540039 C21.97222595 7.84271072 21.10241089 7.65002106 20.20623779 7.45149231 C18.56785395 7.08834996 16.92977132 6.72384484 15.29205322 6.35771179 C14.55154724 6.19358292 13.81104126 6.02945404 13.0480957 5.86035156 C12.4084639 5.71776917 11.76883209 5.57518677 11.1098175 5.42828369 C8.41980524 4.88222301 5.70752973 4.45125495 3 4 C3 59.77 3 115.54 3 173 C2.01 173 1.02 173 0 173 C0 115.91 0 58.82 0 0 Z " fill="#D2EDE2" transform="translate(34,166)"/>
<path d="M0 0 C2.05771065 -0.36914349 2.05771065 -0.36914349 4.64431763 -0.36076355 C5.62310883 -0.36488754 6.60190002 -0.36901154 7.61035156 -0.3732605 C9.22659424 -0.35708176 9.22659424 -0.35708176 10.87548828 -0.34057617 C12.00719452 -0.34101425 13.13890076 -0.34145233 14.30490112 -0.34190369 C18.06021139 -0.33980713 21.81507985 -0.31643473 25.5703125 -0.29296875 C28.16820024 -0.28737589 30.76609113 -0.28310433 33.36398315 -0.28010559 C39.51221268 -0.26980626 45.6602588 -0.24614197 51.80841911 -0.21605712 C58.80710061 -0.1825521 65.80578963 -0.16603695 72.80453134 -0.15097082 C87.20310668 -0.11959334 101.60154768 -0.06680854 116 0 C116 0.33 116 0.66 116 1 C179.855 1.495 179.855 1.495 245 2 C245 2.33 245 2.66 245 3 C243.75262904 2.98948325 242.50525808 2.9789665 241.22008801 2.96813107 C211.58312945 2.72206638 181.94712154 2.56411535 152.30924467 2.51407167 C148.65822883 2.50783024 145.00721476 2.50084819 141.35620117 2.4934082 C140.26596429 2.49120521 140.26596429 2.49120521 139.15370242 2.48895771 C127.39796701 2.4634388 115.64339744 2.37797977 103.8881612 2.27020787 C91.81827533 2.16089154 79.749392 2.11636135 67.6790145 2.13146263 C60.90180575 2.13809621 54.12741358 2.11520326 47.3508358 2.01739311 C40.96778136 1.92820359 34.5895574 1.91915275 28.2061367 1.97076797 C25.86758424 1.9756985 23.52875831 1.95169143 21.19086075 1.89613152 C9.43500233 1.22803894 9.43500233 1.22803894 -0.98870826 5.64298368 C-4.45013732 9.63064777 -6.80073952 14.03999267 -8.97058809 18.82723916 C-10.59255262 22.25068996 -12.64200358 25.38104894 -14.6875 28.5625 C-15.79374743 30.37373077 -16.89879736 32.18569765 -18 34 C-18.99 33.67 -19.98 33.34 -21 33 C-21.66 34.65 -22.32 36.3 -23 38 C-23.99 38 -24.98 38 -26 38 C-26 37.34 -26 36.68 -26 36 C-27.485 36.495 -27.485 36.495 -29 37 C-31.5642825 33.64719274 -34.12610035 30.29250999 -36.6875 26.9375 C-37.7693457 25.52307617 -37.7693457 25.52307617 -38.87304688 24.08007812 C-41.94137525 20.05902679 -44.98884092 16.05100427 -47.84375 11.875 C-49.72824176 8.79412255 -49.72824176 8.79412255 -52.8125 8.0625 C-53.8953125 8.0315625 -53.8953125 8.0315625 -55 8 C-55 7.34 -55 6.68 -55 6 C-51.8203125 5.99609375 -51.8203125 5.99609375 -48 7 C-46.43946844 8.81019427 -45.36684768 10.70811619 -44.18579102 12.78417969 C-41.49152429 17.46715549 -38.66021956 21.80227597 -33.61083984 24.07568359 C-27.3126103 25.73809436 -20.94578974 25.86378705 -15 23 C-9.60774482 18.10287817 -6.24440835 11.65805415 -3.0871582 5.17651367 C-2 3 -2 3 0 0 Z " fill="#D6EEE5" transform="translate(138,144)"/>
<path d="M0 0 C8.55722751 4.51396104 8.55722751 4.51396104 10.6640625 8.8515625 C11.09765625 11.15234375 11.09765625 11.15234375 11.27734375 13.421875 C11.67590591 16.6767993 13.73340609 18.85578317 15.53515625 21.52734375 C15.37890625 23.58203125 15.37890625 23.58203125 14.53515625 25.52734375 C11.15537878 27.76170738 7.33245264 28.4648107 3.34765625 28.77734375 C-1.11936944 26.791999 -2.49858996 22.83396157 -4.46484375 18.52734375 C-9.44040574 18.2402921 -11.60622059 18.46705641 -15.46484375 21.52734375 C-16.78484375 21.19734375 -18.10484375 20.86734375 -19.46484375 20.52734375 C-19.46484375 13.92734375 -19.46484375 7.32734375 -19.46484375 0.52734375 C-12.084166 -1.93288217 -7.29990058 -3.1026635 0 0 Z " fill="#FDFEFE" transform="translate(381.46484375,40.47265625)"/>
<path d="M0 0 C0.99 0.33 1.98 0.66 3 1 C0.64661267 4.77132022 -1.70785674 8.54196381 -4.0625 12.3125 C-4.71927734 13.36501953 -5.37605469 14.41753906 -6.05273438 15.50195312 C-6.70693359 16.54931641 -7.36113281 17.59667969 -8.03515625 18.67578125 C-8.69 19.7421582 -9.34484375 20.80853516 -10.01953125 21.90722656 C-12 25 -12 25 -14.02734375 27.66308594 C-19.91891749 35.63775182 -19.96428396 43.09323262 -19.875 52.625 C-19.88518329 54.38153411 -19.89902561 56.13804979 -19.91601562 57.89453125 C-19.95135402 62.05250547 -19.96637701 66.21004617 -19.97167969 70.36816406 C-20.00385409 83.89274041 -20.22300059 97.41642561 -20.39888573 110.93972969 C-20.47784074 117.07123252 -20.54582909 123.20278791 -20.60888672 129.33447266 C-20.83307819 150.56609604 -21.28423259 171.77911124 -22 193 C-50.65951014 150.01073479 -22.85387786 89.65961031 -22 38 C-102.52 38 -183.04 38 -266 38 C-266 37.67 -266 37.34 -266 37 C-144.725 36.505 -144.725 36.505 -21 36 C-20.34 34.35 -19.68 32.7 -19 31 C-18.00816719 29.23349321 -16.97790839 27.48821999 -15.91796875 25.76171875 C-15.01401367 24.28348633 -15.01401367 24.28348633 -14.09179688 22.77539062 C-13.14916992 21.24688477 -13.14916992 21.24688477 -12.1875 19.6875 C-11.57068359 18.68009766 -10.95386719 17.67269531 -10.31835938 16.63476562 C-6.90794233 11.07154548 -3.4673247 5.52790623 0 0 Z " fill="#CAE9DE" transform="translate(382,148)"/>
<path d="M0 0 C15.41774145 -0.90338329 15.41774145 -0.90338329 21.4296875 3.78125 C23.06426405 5.19444732 23.06426405 5.19444732 25.75 5.875 C29.2968276 7.6484138 30.25224785 10.50449571 32 14 C25.32395498 19.82636656 25.32395498 19.82636656 20.1875 20.5 C17 20 17 20 14 18 C10.40139536 17.7963054 7.18101819 17.9698303 3.625 18.5625 C2.75875 18.706875 1.8925 18.85125 1 19 C0 18 0 18 -0.11352539 16.23413086 C-0.10828857 15.48526611 -0.10305176 14.73640137 -0.09765625 13.96484375 C-0.09443359 13.15595703 -0.09121094 12.34707031 -0.08789062 11.51367188 C-0.07951172 10.66353516 -0.07113281 9.81339844 -0.0625 8.9375 C-0.05798828 8.08349609 -0.05347656 7.22949219 -0.04882812 6.34960938 C-0.03700373 4.23304337 -0.01906769 2.11651315 0 0 Z " fill="#FDFEFE" transform="translate(272,67)"/>
<path d="M0 0 C6.85638757 3.05751988 12.9462535 7.61245964 19 12 C19.94214355 12.67071533 19.94214355 12.67071533 20.90332031 13.35498047 C36.17056169 24.25584254 36.17056169 24.25584254 40 30 C40.1953125 32.26171875 40.1953125 32.26171875 40.125 34.6875 C40.10695313 35.49574219 40.08890625 36.30398437 40.0703125 37.13671875 C40.04710937 37.75160156 40.02390625 38.36648437 40 39 C38.35 39.66 36.7 40.32 35 41 C35.5878125 39.9171875 35.5878125 39.9171875 36.1875 38.8125 C37.32050381 36.02914289 37.32050381 36.02914289 35.93359375 33.6328125 C33.63836358 30.50759 30.96762834 28.33639966 27.875 26.0625 C27.30112549 25.6308252 26.72725098 25.19915039 26.13598633 24.75439453 C21.54165223 21.32643778 16.83813772 18.07540537 12 15 C14.35456323 20.56717533 14.35456323 20.56717533 17 26 C16.01 26 15.02 26 14 26 C11.28608722 21.22642128 9.43438854 17.65611463 10 12 C9.34 11.773125 8.68 11.54625 8 11.3125 C5.39908045 10.1745977 3.59125441 9.00664363 1.3125 7.375 C-5.40715122 3.06428035 -12.45505521 4.92215074 -20 6 C-20 12.6 -20 19.2 -20 26 C-20.33 26 -20.66 26 -21 26 C-21.14539953 22.58378212 -21.23409725 19.16836009 -21.3125 15.75 C-21.35439453 14.78191406 -21.39628906 13.81382813 -21.43945312 12.81640625 C-21.5636291 5.61419942 -21.5636291 5.61419942 -18.60546875 2.390625 C-12.6189995 -0.80455199 -6.69758801 -1.66730052 0 0 Z " fill="#BFE5D7" transform="translate(381,35)"/>
<path d="M0 0 C5.32990374 1.62445273 9.30115108 5.06179884 13.625 8.4375 C14.388125 9.02337891 15.15125 9.60925781 15.9375 10.21289062 C25.24391235 17.4049514 25.24391235 17.4049514 26 23 C17.89978926 27.49013899 9.26316513 24.25381683 0.96484375 21.875 C-0.01355469 21.58625 -0.99195313 21.2975 -2 21 C-2 20.34 -2 19.68 -2 19 C0.97 18.01 3.94 17.02 7 16 C5.45546055 12.75646715 3.8768672 9.824096 1.8125 6.875 C0 4 0 4 0 0 Z " fill="#FCFEFD" transform="translate(393,50)"/>
<path d="M0 0 C2.82705783 1.2523907 5.2951831 2.77828912 7.9140625 4.41796875 C11.73895784 6.37883282 15.43825304 7.20101636 19.625 8.0625 C27.15487998 9.63890588 34.51069616 11.26604424 39 18 C39.125 20.6875 39.125 20.6875 39 23 C37.68 23.33 36.36 23.66 35 24 C35.66 22.35 36.32 20.7 37 19 C33.16165735 17.40129068 29.2857924 16.09824852 25.3125 14.875 C24.17425781 14.52179688 23.03601563 14.16859375 21.86328125 13.8046875 C19.17479954 12.90981487 19.17479954 12.90981487 17 13 C17.7734375 14.1446875 17.7734375 14.1446875 18.5625 15.3125 C19.036875 16.199375 19.51125 17.08625 20 18 C19 21 19 21 16.9375 22.1875 C16.298125 22.455625 15.65875 22.72375 15 23 C15 20 15 20 17 18 C16.505 17.38125 16.01 16.7625 15.5 16.125 C14 14 14 14 14 12 C12.96875 11.7525 11.9375 11.505 10.875 11.25 C8.07657543 10.5783781 6.62635013 9.72400862 4.25 7.96875 C0.4777747 5.68365198 -2.59129577 5.34285623 -6.875 5.25 C-9.22625 5.1675 -11.5775 5.085 -14 5 C-14.33 10.28 -14.66 15.56 -15 21 C-15.33 21 -15.66 21 -16 21 C-16.02703562 18.41659616 -16.04685611 15.83347692 -16.0625 13.25 C-16.07087891 12.52039063 -16.07925781 11.79078125 -16.08789062 11.0390625 C-16.11857629 4.28821715 -16.11857629 4.28821715 -15 1 C-10.5041803 -1.24790985 -4.86218233 -0.58259072 0 0 Z " fill="#BFE5D7" transform="translate(286,62)"/>
<path d="M0 0 C1.485 0.495 1.485 0.495 3 1 C3.751633 2.75000322 4.45529068 4.52077349 5.1328125 6.30078125 C7.22307848 10.29581342 8.39508449 11.7361855 12.57714844 13.56005859 C16.94988858 14.76442542 21.40008573 15.48071184 25.875 16.1875 C27.43829516 16.47024773 29.00081466 16.75732007 30.5625 17.04882812 C34.36786876 17.74949159 38.17901375 18.39051168 42 19 C41.34 19.66 40.68 20.32 40 21 C33.66870677 20.56682743 27.5151089 19.13286932 21.32421875 17.78515625 C20.31841263 17.5693541 19.31260651 17.35355194 18.27632141 17.13121033 C15.07934533 16.44485729 11.88336631 15.75400041 8.6875 15.0625 C5.50222425 14.37515738 2.3167354 13.68884342 -0.8691864 13.00450134 C-2.84421055 12.58007973 -4.8188586 12.15390244 -6.79304504 11.7256012 C-13.17364378 10.35203253 -19.57209477 9.13126969 -26 8 C-25.55624023 8.66012085 -25.11248047 9.3202417 -24.65527344 10.00036621 C-22.85082678 12.68594708 -21.05049157 15.37426606 -19.25 18.0625 C-18.61578125 19.00544922 -17.9815625 19.94839844 -17.328125 20.91992188 C-14.02569373 25.85636862 -10.85953636 30.79362194 -8 36 C-8.99 36 -9.98 36 -11 36 C-12.70311555 33.86991157 -14.18819275 31.78692003 -15.66796875 29.5078125 C-16.10764481 28.8466745 -16.54732086 28.1855365 -17.00032043 27.50436401 C-17.92886699 26.10364312 -18.85237814 24.69957328 -19.77124023 23.29248047 C-21.18174756 21.13380369 -22.60793256 18.98619405 -24.03710938 16.83984375 C-24.93583923 15.4797896 -25.83365688 14.11913212 -26.73046875 12.7578125 C-27.15853317 12.11192169 -27.5865976 11.46603088 -28.02763367 10.80056763 C-31 6.23267602 -31 6.23267602 -31 4 C-23.37464521 4.76060988 -15.97873613 6.42462639 -8.5 8.0625 C-7.1875693 8.3473247 -5.87506978 8.6318325 -4.5625 8.91601562 C-1.37431099 9.60757133 1.81314691 10.30231863 5 11 C4.45859375 10.06027344 4.45859375 10.06027344 3.90625 9.1015625 C3.4421875 8.28429687 2.978125 7.46703125 2.5 6.625 C2.0359375 5.81289062 1.571875 5.00078125 1.09375 4.1640625 C0 2 0 2 0 0 Z " fill="#C5E7DB" transform="translate(43,130)"/>
<path d="M0 0 C7.72797782 0.54311869 15.19178577 2.19277545 22.75 3.8359375 C24.05753181 4.11880306 25.36506769 4.40164982 26.67260742 4.68447876 C29.39303515 5.27440221 32.11251809 5.86849023 34.83154297 6.46484375 C38.32051559 7.22911636 41.81286292 7.97662758 45.3062439 8.72044945 C48.64420799 9.43487572 51.97803096 10.16787416 55.3125 10.8984375 C57.1982373 11.29704483 57.1982373 11.29704483 59.12207031 11.70370483 C60.85021973 12.08892807 60.85021973 12.08892807 62.61328125 12.48193359 C63.63204346 12.70319916 64.65080566 12.92446472 65.70043945 13.1524353 C66.45929443 13.43213165 67.21814941 13.711828 68 14 C68.495 15.485 68.495 15.485 69 17 C54.28351507 14.17032695 39.6197675 11.10461152 24.97677612 7.91867065 C23.11887942 7.5149091 21.26058157 7.11298898 19.40188599 6.71292114 C16.76018257 6.14353491 14.12015763 5.56692578 11.48046875 4.98828125 C10.68351593 4.81758118 9.88656311 4.6468811 9.06546021 4.4710083 C5.47217529 3.67510632 2.18153678 2.89539486 -1 1 C-0.67 0.67 -0.34 0.34 0 0 Z " fill="#C5E7DA" transform="translate(40,168)"/>
<path d="M0 0 C1.98 0 3.96 0 6 0 C7.17176518 2.12232979 8.33754785 4.24757791 9.5 6.375 C9.83386719 6.97828125 10.16773438 7.5815625 10.51171875 8.203125 C13 12.7734375 13 12.7734375 13 15 C8.05 15 3.1 15 -2 15 C-1.46610545 9.96613708 -0.89474106 4.98498593 0 0 Z " fill="#FDFEFD" transform="translate(287,129)"/>
<path d="M0 0 C0.99 0 1.98 0 3 0 C3 3.3 3 6.6 3 10 C4.32 9.34 5.64 8.68 7 8 C7.69632215 6.04634555 7.69632215 6.04634555 7.75 3.875 C7.8325 2.59625 7.915 1.3175 8 0 C8.99 0 9.98 0 11 0 C11.36842105 7.49122807 11.36842105 7.49122807 9.6875 9.8125 C9.130625 10.204375 8.57375 10.59625 8 11 C7.443125 11.556875 6.88625 12.11375 6.3125 12.6875 C5.6628125 13.3371875 5.6628125 13.3371875 5 14 C9.57905568 14.45145529 9.57905568 14.45145529 13.6875 12.84375 C15.47420141 10.33385992 15.50787073 8.36619759 15.6875 5.3125 C15.75324219 4.31863281 15.81898437 3.32476562 15.88671875 2.30078125 C15.92410156 1.54152344 15.96148437 0.78226562 16 0 C16.99 0 17.98 0 19 0 C19.56221257 11.88975473 19.56221257 11.88975473 16 16 C12.48626113 17.75686944 8.82561263 17.65958838 5 17 C1.21025418 14.1383552 1.21025418 14.1383552 0 11 C-0.386604 7.29165377 -0.29723947 3.71219074 0 0 Z " fill="#8E8E8E" transform="translate(52,427)"/>
<path d="M0 0 C0.99 0 1.98 0 3 0 C3 3.3 3 6.6 3 10 C4.32 9.34 5.64 8.68 7 8 C7.69632215 6.04634555 7.69632215 6.04634555 7.75 3.875 C7.8325 2.59625 7.915 1.3175 8 0 C8.99 0 9.98 0 11 0 C11.36842105 7.49122807 11.36842105 7.49122807 9.6875 9.8125 C9.130625 10.204375 8.57375 10.59625 8 11 C7.443125 11.556875 6.88625 12.11375 6.3125 12.6875 C5.6628125 13.3371875 5.6628125 13.3371875 5 14 C10.32170494 14.29562367 10.32170494 14.29562367 15 12 C15.58481121 9.11404054 15.58481121 9.11404054 15.6875 5.875 C15.75324219 4.77929688 15.81898438 3.68359375 15.88671875 2.5546875 C15.92410156 1.71164062 15.96148437 0.86859375 16 0 C16.99 0 17.98 0 19 0 C19.56221257 11.88975473 19.56221257 11.88975473 16 16 C12.53969009 17.73015495 8.77455703 17.61789902 5 17 C2.10046533 14.24544206 0.06870001 11.67628032 -0.09765625 7.6171875 C-0.08605469 6.71226562 -0.07445312 5.80734375 -0.0625 4.875 C-0.05347656 3.96492188 -0.04445313 3.05484375 -0.03515625 2.1171875 C-0.02355469 1.41851562 -0.01195312 0.71984375 0 0 Z " fill="#909090" transform="translate(386,427)"/>
<path d="M0 0 C7.67433294 1.21763946 14.08030809 3.54015404 21 7 C21 7.99 21 8.98 21 10 C18.45887768 10.33801152 15.91723254 10.67053379 13.375 11 C12.66214844 11.09539062 11.94929688 11.19078125 11.21484375 11.2890625 C7.11178391 11.81606101 3.14754258 12.10466984 -1 12 C0.32 10.68 1.64 9.36 3 8 C2.690625 7.236875 2.38125 6.47375 2.0625 5.6875 C1.32106407 3.81210323 0.63771783 1.91315348 0 0 Z " fill="#FBFDFD" transform="translate(302,74)"/>
<path d="M0 0 C2.24893954 -0.10823773 4.49937575 -0.18569645 6.75 -0.25 C8.00296875 -0.29640625 9.2559375 -0.3428125 10.546875 -0.390625 C14 0 14 0 16.4375 1.59375 C18.52285579 4.80519791 18.40185286 6.95367842 18.25 10.75 C18.21390625 11.92046875 18.1778125 13.0909375 18.140625 14.296875 C18.07101563 15.63492187 18.07101563 15.63492187 18 17 C17.01 17 16.02 17 15 17 C14.67 12.71 14.34 8.42 14 4 C11.69 3.67 9.38 3.34 7 3 C7.02320313 3.84304688 7.04640625 4.68609375 7.0703125 5.5546875 C7.08835937 6.65039062 7.10640625 7.74609375 7.125 8.875 C7.14820313 9.96554687 7.17140625 11.05609375 7.1953125 12.1796875 C7 15 7 15 5 17 C2.375 17.125 2.375 17.125 0 17 C0 16.34 0 15.68 0 15 C0.99 14.67 1.98 14.34 3 14 C3.33 10.37 3.66 6.74 4 3 C2.68 3 1.36 3 0 3 C0 2.01 0 1.02 0 0 Z " fill="#909090" transform="translate(30,427)"/>
<path d="M0 0 C2.27024968 -0.08097324 4.54132075 -0.13917704 6.8125 -0.1875 C8.07707031 -0.22230469 9.34164062 -0.25710938 10.64453125 -0.29296875 C14 0 14 0 15.9375 1.0625 C17.59475792 4.08455855 17.28123569 6.78176996 17.1875 10.1875 C17.16042969 11.45980469 17.13335937 12.73210937 17.10546875 14.04296875 C17.07066406 15.01878906 17.03585938 15.99460937 17 17 C16.01 17 15.02 17 14 17 C13.67 12.71 13.34 8.42 13 4 C10.69 3.67 8.38 3.34 6 3 C6.02320313 3.84304688 6.04640625 4.68609375 6.0703125 5.5546875 C6.08835938 6.65039062 6.10640625 7.74609375 6.125 8.875 C6.14820313 9.96554687 6.17140625 11.05609375 6.1953125 12.1796875 C6 15 6 15 4 17 C2.68 17 1.36 17 0 17 C0 16.34 0 15.68 0 15 C0.99 15 1.98 15 3 15 C3 11.04 3 7.08 3 3 C2.01 3 1.02 3 0 3 C0 2.01 0 1.02 0 0 Z " fill="#979797" transform="translate(201,427)"/>
<path d="M0 0 C0.845625 0.185625 1.69125 0.37125 2.5625 0.5625 C6.03676 1.19558563 6.03676 1.19558563 9.5625 0.25 C13 0 13 0 15.9375 1.9375 C18.76620649 6.13770054 18.71373503 8.00385481 18 13 C16.375 15.5 16.375 15.5 14 17 C10.75 17.25 10.75 17.25 8 17 C8 16.34 8 15.68 8 15 C9.98 14.67 11.96 14.34 14 14 C14.05399736 12.54207116 14.09279177 11.08357288 14.125 9.625 C14.15980469 8.40683594 14.15980469 8.40683594 14.1953125 7.1640625 C14.21370051 4.78657757 14.21370051 4.78657757 12 3 C9.93400917 2.93245166 9.93400917 2.93245166 8 4 C5.67678531 8.03505709 5.46299608 12.44720523 5 17 C4.01 17 3.02 17 2 17 C2.03480469 15.78763672 2.03480469 15.78763672 2.0703125 14.55078125 C2.08835938 13.48214844 2.10640625 12.41351563 2.125 11.3125 C2.14820313 10.25675781 2.17140625 9.20101563 2.1953125 8.11328125 C1.99858729 4.97748141 1.33057654 2.82354627 0 0 Z " fill="#8E8E8E" transform="translate(172,427)"/>
<path d="M0 0 C0.99 0 1.98 0 3 0 C3.61538462 7.26153846 3.61538462 7.26153846 0.5 11 C-0.325 11.66 -1.15 12.32 -2 13 C-0.89350443 14.31534788 -0.89350443 14.31534788 1.875 14.3125 C4.97353697 14.28689287 4.97353697 14.28689287 6.8125 12.5625 C8.54536807 8.82315312 8.7471602 5.08031126 9 1 C9.66 1 10.32 1 11 1 C11.7701658 10.77254826 11.7701658 10.77254826 9 15.1875 C5.1456129 17.5161922 2.38701499 18.05252981 -2 17 C-5 15.1875 -5 15.1875 -7 12 C-7.40078315 8.29405711 -7.29246649 4.71107479 -7 1 C-6.34 1 -5.68 1 -5 1 C-5 3.97 -5 6.94 -5 10 C-3.68 9.34 -2.36 8.68 -1 8 C-0.30367785 6.04634555 -0.30367785 6.04634555 -0.25 3.875 C-0.1675 2.59625 -0.085 1.3175 0 0 Z " fill="#868686" transform="translate(131,427)"/>
<path d="M0 0 C2.9375 1.5625 2.9375 1.5625 5 4 C5.69990157 8.27717625 5.50342498 10.2280817 3.125 13.875 C0.88054301 16.11945699 -0.01632238 16.95561022 -3.1640625 17.09765625 C-4.38222656 17.08025391 -4.38222656 17.08025391 -5.625 17.0625 C-6.85089844 17.04896484 -6.85089844 17.04896484 -8.1015625 17.03515625 C-8.72804688 17.02355469 -9.35453125 17.01195312 -10 17 C-10 16.01 -10 15.02 -10 14 C-4.555 13.505 -4.555 13.505 1 13 C1.020625 11.700625 1.04125 10.40125 1.0625 9.0625 C1.07410156 8.33160156 1.08570312 7.60070312 1.09765625 6.84765625 C1.20561184 4.98267859 1.20561184 4.98267859 0 4 C-2.33297433 3.95907063 -4.66705225 3.95758277 -7 4 C-7 5.32 -7 6.64 -7 8 C-6.34 8.33 -5.68 8.66 -5 9 C-5 9.99 -5 10.98 -5 12 C-9.875 10.125 -9.875 10.125 -11 9 C-10.75 5.5625 -10.75 5.5625 -10 2 C-6.2626144 -0.4915904 -4.42668417 -0.45793285 0 0 Z " fill="#8E8E8E" transform="translate(86,427)"/>
<path d="M0 0 C0.61875 0.165 1.2375 0.33 1.875 0.5 C3.96063386 1.07634644 3.96063386 1.07634644 6 1 C6.33 0.67 6.66 0.34 7 0 C10.40932922 -0.37881436 12.37817286 -0.36000519 15.375 1.375 C17.81875537 5.32260482 17.8392962 9.47082499 17 14 C15.671875 15.796875 15.671875 15.796875 14 17 C10.8125 17.1875 10.8125 17.1875 8 17 C8 16.34 8 15.68 8 15 C8.804375 14.690625 9.60875 14.38125 10.4375 14.0625 C12.89080405 13.23664655 12.89080405 13.23664655 14 12 C14.24733137 7.85723125 14.24733137 7.85723125 13 4 C10.58380177 3.74969023 10.58380177 3.74969023 8 4 C5.99706653 7.00440021 5.50728374 8.70993945 4.875 12.1875 C4.70742188 13.08855469 4.53984375 13.98960937 4.3671875 14.91796875 C4.24601562 15.60503906 4.12484375 16.29210937 4 17 C3.34 17 2.68 17 2 17 C2.03480469 15.78763672 2.03480469 15.78763672 2.0703125 14.55078125 C2.08835937 13.48214844 2.10640625 12.41351563 2.125 11.3125 C2.14820313 10.25675781 2.17140625 9.20101563 2.1953125 8.11328125 C1.99858729 4.97748141 1.33057654 2.82354627 0 0 Z " fill="#909090" transform="translate(305,427)"/>
<path d="M0 0 C10.19668939 -0.36416748 10.19668939 -0.36416748 13.34375 1.0625 C15.85390293 3.99890532 15.38883365 6.40428293 15.25 10.1875 C15.21390625 11.45980469 15.1778125 12.73210937 15.140625 14.04296875 C15.07101563 15.50669922 15.07101563 15.50669922 15 17 C14.01 17 13.02 17 12 17 C11.67 12.71 11.34 8.42 11 4 C8.36 3.67 5.72 3.34 3 3 C3 7.62 3 12.24 3 17 C2.01 17 1.02 17 0 17 C0 11.39 0 5.78 0 0 Z " fill="#909090" transform="translate(104,427)"/>
<path d="M0 0 C5.61 0 11.22 0 17 0 C15.58001139 3.54997152 14.3878411 6.18729934 12.375 9.3125 C11.92898437 10.00988281 11.48296875 10.70726562 11.0234375 11.42578125 C10.51683594 12.20501953 10.51683594 12.20501953 10 13 C5.7181939 9.08520585 2.96203144 4.99313871 0 0 Z " fill="#FAFDFC" transform="translate(104,170)"/>
<path d="M0 0 C0.99 0 1.98 0 3 0 C4.36176581 1.98075027 5.69593116 3.98079663 7 6 C7.66 6 8.32 6 9 6 C9.66 4.02 10.32 2.04 11 0 C11.99 0 12.98 0 14 0 C13.38461538 6.52307692 13.38461538 6.52307692 11.4375 8.9375 C10.963125 9.288125 10.48875 9.63875 10 10 C10.495 10.598125 10.99 11.19625 11.5 11.8125 C13 14 13 14 13 17 C8.71 17 4.42 17 0 17 C0 16.01 0 15.02 0 14 C2.64 13.67 5.28 13.34 8 13 C7.4225 12.22914063 6.845 11.45828125 6.25 10.6640625 C5.5075 9.66117187 4.765 8.65828125 4 7.625 C3.2575 6.62726563 2.515 5.62953125 1.75 4.6015625 C0 2 0 2 0 0 Z " fill="#8E8E8E" transform="translate(288,427)"/>
<path d="M0 0 C1.32 0 2.64 0 4 0 C5.36176581 1.98075027 6.69593116 3.98079663 8 6 C8.99 6 9.98 6 11 6 C11.33 4.35 11.66 2.7 12 1 C12.99 1 13.98 1 15 1 C14.49287967 4.71888239 13.88391785 7.73454239 12 11 C12.495 11.61875 12.99 12.2375 13.5 12.875 C15 15 15 15 15 17 C12.20171644 16.61402985 11.1794116 16.19863427 9.25 14.0625 C8 12 8 12 8 10 C7.01 10.33 6.02 10.66 5 11 C3.77479736 14.00847418 3.77479736 14.00847418 3 17 C2.01 17 1.02 17 0 17 C0.25 13.625 0.25 13.625 1 10 C2.32 9.34 3.64 8.68 5 8 C2.525 4.04 2.525 4.04 0 0 Z " fill="#8D8D8D" transform="translate(269,427)"/>
<path d="M0 0 C1.32 0 2.64 0 4 0 C5.38123963 1.96722008 6.71488126 3.96868328 8 6 C8.99 6.33 9.98 6.66 11 7 C11.33 4.69 11.66 2.38 12 0 C12.99 0 13.98 0 15 0 C14.23752969 6.60807601 14.23752969 6.60807601 12.75 9.0625 C11.65276231 11.22959001 11.65276231 11.22959001 13.375 14.25 C13.91125 15.1575 14.4475 16.065 15 17 C11.82461668 16.65978036 10.97723135 15.97533396 8.75 13.5625 C7 11 7 11 7 9 C4.10067643 11.39509338 3.49831724 13.31245243 3 17 C2.01 17 1.02 17 0 17 C0.25 13.625 0.25 13.625 1 10 C2.32 9.34 3.64 8.68 5 8 C2.525 4.04 2.525 4.04 0 0 Z " fill="#8D8D8D" transform="translate(428,427)"/>
<path d="M0 0 C1.32 0 2.64 0 4 0 C5.36176581 1.98075027 6.69593116 3.98079663 8 6 C8.99 6 9.98 6 11 6 C11.66 4.35 12.32 2.7 13 1 C13.66 1 14.32 1 15 1 C15.36923077 5.55384615 15.36923077 5.55384615 13.5 7.8125 C13.005 8.204375 12.51 8.59625 12 9 C12.309375 9.763125 12.61875 10.52625 12.9375 11.3125 C13.67893593 13.18789677 14.36228217 15.08684652 15 17 C13.25 16.875 13.25 16.875 11 16 C8.75 12.9375 8.75 12.9375 7 10 C3.77595022 11.66954819 3.77595022 11.66954819 3.3125 14.625 C3.209375 15.40875 3.10625 16.1925 3 17 C2.01 17 1.02 17 0 17 C0.4979837 13.26512223 0.87491756 11.18762365 3 8 C3.66 8 4.32 8 5 8 C2.525 4.04 2.525 4.04 0 0 Z " fill="#8E8E8E" transform="translate(333,427)"/>
<path d="M0 0 C1.32 0 2.64 0 4 0 C5.36176581 1.98075027 6.69593116 3.98079663 8 6 C8.99 6 9.98 6 11 6 C11.33 4.35 11.66 2.7 12 1 C12.99 1 13.98 1 15 1 C15.36923077 5.55384615 15.36923077 5.55384615 13.5 7.8125 C13.005 8.204375 12.51 8.59625 12 9 C12.309375 9.763125 12.61875 10.52625 12.9375 11.3125 C13.67893593 13.18789677 14.36228217 15.08684652 15 17 C13.25 16.875 13.25 16.875 11 16 C8.75 12.9375 8.75 12.9375 7 10 C4.64214682 10.89335797 4.64214682 10.89335797 3.875 14.0625 C3.58625 15.031875 3.2975 16.00125 3 17 C2.34 17 1.68 17 1 17 C0.75 11.375 0.75 11.375 3 8 C3.66 8 4.32 8 5 8 C2.525 4.04 2.525 4.04 0 0 Z " fill="#8C8C8C" transform="translate(222,427)"/>
<path d="M0 0 C0.67408308 1.26691507 1.33900497 2.53870749 2 3.8125 C2.556875 4.87404297 2.556875 4.87404297 3.125 5.95703125 C4 8 4 8 4 11 C-4.415 9.02 -4.415 9.02 -13 7 C-13 6.01 -13 5.02 -13 4 C-4.738041 -0.59225513 -4.738041 -0.59225513 0 0 Z " fill="#FCFDFD" transform="translate(376,60)"/>
<path d="M0 0 C0.99 0 1.98 0 3 0 C3 1.65 3 3.3 3 5 C5.97 5 8.94 5 12 5 C11.46246904 11.18160604 9.45417612 16.326858 7 22 C6.01 22 5.02 22 4 22 C4.65419099 16.93001981 6.8546409 12.58009223 9 8 C6.03 8 3.06 8 0 8 C0 5.36 0 2.72 0 0 Z " fill="#8E8E8E" transform="translate(353,422)"/>
<path d="M0 0 C2 2 2 2 2 7 C-5.425 6.01 -5.425 6.01 -13 5 C-13 3.68 -13 2.36 -13 1 C-8.25502375 -0.96742918 -5.01023306 -1.15620763 0 0 Z " fill="#FDFEFD" transform="translate(287,87)"/>
<path d="M0 0 C1.74861792 -0.10853491 3.49919241 -0.18583428 5.25 -0.25 C6.22453125 -0.29640625 7.1990625 -0.3428125 8.203125 -0.390625 C11 0 11 0 13.34375 1.59375 C15.55251544 4.80271111 15.40430061 6.89248471 15.25 10.75 C15.21390625 11.92046875 15.1778125 13.0909375 15.140625 14.296875 C15.07101563 15.63492187 15.07101563 15.63492187 15 17 C14.01 17 13.02 17 12 17 C11.67 12.71 11.34 8.42 11 4 C7.37 3.67 3.74 3.34 0 3 C0 2.01 0 1.02 0 0 Z " fill="#949494" transform="translate(154,427)"/>
<path d="M0 0 C2.31 0 4.62 0 7 0 C7.05383848 2.45862401 7.09359038 4.9160755 7.125 7.375 C7.14175781 8.07367188 7.15851563 8.77234375 7.17578125 9.4921875 C7.19344267 11.32897486 7.10303261 13.16601963 7 15 C5 17 5 17 2.375 17.125 C1.59125 17.08375 0.8075 17.0425 0 17 C0 16.34 0 15.68 0 15 C0.99 14.67 1.98 14.34 3 14 C3.33 10.37 3.66 6.74 4 3 C2.68 3 1.36 3 0 3 C0 2.01 0 1.02 0 0 Z " fill="#8E8E8E" transform="translate(258,427)"/>
<path d="M0 0 C3.96 0 7.92 0 12 0 C12 0.33 12 0.66 12 1 C10.35 1.33 8.7 1.66 7 2 C6.95101562 2.84304688 6.90203125 3.68609375 6.8515625 4.5546875 C6.77679688 5.65039062 6.70203125 6.74609375 6.625 7.875 C6.55539063 8.96554687 6.48578125 10.05609375 6.4140625 11.1796875 C6 14 6 14 4 16 C2.68 16 1.36 16 0 16 C0 15.34 0 14.68 0 14 C0.99 14 1.98 14 3 14 C3 10.04 3 6.08 3 2 C2.01 2 1.02 2 0 2 C0 1.34 0 0.68 0 0 Z " fill="#8B8B8B" transform="translate(201,428)"/>
<path d="M0 0 C2.1875 1.3125 2.1875 1.3125 4 3 C4 3.66 4 4.32 4 5 C4.99 4.67 5.98 4.34 7 4 C7 5.32 7 6.64 7 8 C4.03 7.505 4.03 7.505 1 7 C0.67 7.99 0.34 8.98 0 10 C-1.32 9.67 -2.64 9.34 -4 9 C-3.67 8.34 -3.34 7.68 -3 7 C-2.960008 5.00039988 -2.95653201 2.99952758 -3 1 C-2.01 0.67 -1.02 0.34 0 0 Z " fill="#D4EDE4" transform="translate(391,73)"/>
<path d="M0 0 C2.875 0.3125 2.875 0.3125 6 1 C8.14553377 4.21830065 8.29583868 5.26786507 8.3125 9 C8.32925781 9.86625 8.34601563 10.7325 8.36328125 11.625 C8 14 8 14 6.6796875 15.80078125 C4.17533953 17.58876922 1.9857871 17.19905247 -1 17 C-1 16.34 -1 15.68 -1 15 C-0.195625 14.690625 0.60875 14.38125 1.4375 14.0625 C3.89080405 13.23664655 3.89080405 13.23664655 5 12 C5.26293056 7.96839809 5.29404844 6.44107266 3 3 C2.01 2.67 1.02 2.34 0 2 C0 1.34 0 0.68 0 0 Z " fill="#878787" transform="translate(314,427)"/>
<path d="M0 0 C1.65 0 3.3 0 5 0 C5 5.61 5 11.22 5 17 C4.01 17 3.02 17 2 17 C2 12.38 2 7.76 2 3 C1.34 3 0.68 3 0 3 C0 2.01 0 1.02 0 0 Z " fill="#8E8E8E" transform="translate(419,427)"/>
<path d="M0 0 C2 0.3125 2 0.3125 4 1 C5.44207941 3.88415883 5.09394887 6.41721528 5.0625 9.625 C5.05347656 10.81351562 5.04445313 12.00203125 5.03515625 13.2265625 C5.02355469 14.14179688 5.01195312 15.05703125 5 16 C4.01 16 3.02 16 2 16 C1.95101562 15.08476562 1.90203125 14.16953125 1.8515625 13.2265625 C1.77679688 12.03804688 1.70203125 10.84953125 1.625 9.625 C1.55539063 8.44164062 1.48578125 7.25828125 1.4140625 6.0390625 C1.29782654 2.89437681 1.29782654 2.89437681 -1 1 C-0.67 0.67 -0.34 0.34 0 0 Z " fill="#8A8A8A" transform="translate(43,428)"/>
<path d="M0 0 C0.66 0 1.32 0 2 0 C2.76681614 9.73004484 2.76681614 9.73004484 0.88671875 12.84375 C-0.5 14.1875 -0.5 14.1875 -3 16 C-3.33 15.01 -3.66 14.02 -4 13 C-3.54625 12.46375 -3.0925 11.9275 -2.625 11.375 C-0.21088242 7.84667431 -0.25961672 4.18967677 0 0 Z " fill="#868686" transform="translate(140,428)"/>
<path d="M0 0 C1.65 0 3.3 0 5 0 C5 3.63 5 7.26 5 11 C4.01 11 3.02 11 2 11 C2 8.36 2 5.72 2 3 C1.34 3 0.68 3 0 3 C0 2.01 0 1.02 0 0 Z " fill="#8F8F8F" transform="translate(409,427)"/>
<path d="M0 0 C1.65 0 3.3 0 5 0 C5 3.63 5 7.26 5 11 C4.01 11 3.02 11 2 11 C2 8.36 2 5.72 2 3 C1.34 3 0.68 3 0 3 C0 2.01 0 1.02 0 0 Z " fill="#8F8F8F" transform="translate(94,427)"/>
<path d="M0 0 C1.32 0 2.64 0 4 0 C4 5.28 4 10.56 4 16 C3.34 16 2.68 16 2 16 C2 11.38 2 6.76 2 2 C1.34 2 0.68 2 0 2 C0 1.34 0 0.68 0 0 Z " fill="#808080" transform="translate(249,428)"/>
<path d="M0 0 C0.99 0 1.98 0 3 0 C3.36923077 7.50769231 3.36923077 7.50769231 1.5 10 C1.005 10.33 0.51 10.66 0 11 C-0.99 10.34 -1.98 9.68 -3 9 C-2.34 8.67 -1.68 8.34 -1 8 C-0.53476937 6.10466658 -0.53476937 6.10466658 -0.375 3.9375 C-0.25125 2.638125 -0.1275 1.33875 0 0 Z " fill="#9C9C9C" transform="translate(131,427)"/>
<path d="M0 0 C0.99 0 1.98 0 3 0 C3 3.63 3 7.26 3 11 C2.01 11 1.02 11 0 11 C0 7.37 0 3.74 0 0 Z " fill="#939393" transform="translate(402,427)"/>
<path d="M0 0 C0.99 0 1.98 0 3 0 C3 3.63 3 7.26 3 11 C2.01 11 1.02 11 0 11 C0 7.37 0 3.74 0 0 Z " fill="#939393" transform="translate(68,427)"/>
<path d="M0 0 C1.32 0.66 2.64 1.32 4 2 C3.01 2.495 3.01 2.495 2 3 C1.27306096 4.97888961 0.60183749 6.97954558 0 9 C-0.99 9 -1.98 9 -3 9 C-2.25 2.25 -2.25 2.25 0 0 Z " fill="#979797" transform="translate(272,435)"/>
<path d="M0 0 C3 1 3 1 4.38671875 3.50390625 C4.81597656 4.51324219 5.24523437 5.52257812 5.6875 6.5625 C6.12449219 7.57441406 6.56148438 8.58632812 7.01171875 9.62890625 C7.33785156 10.41136719 7.66398437 11.19382813 8 12 C7.01 12 6.02 12 5 12 C4.16180842 10.37750059 3.3295884 8.75191503 2.5 7.125 C2.0359375 6.22007812 1.571875 5.31515625 1.09375 4.3828125 C0 2 0 2 0 0 Z " fill="#C6E8DC" transform="translate(294,130)"/>
<path d="M0 0 C4.26290179 0.47365575 6.21548958 2.92238322 9 6 C11 9 11 9 10.625 11.1875 C10.41875 11.785625 10.2125 12.38375 10 13 C9.61328125 12.39671875 9.2265625 11.7934375 8.828125 11.171875 C4.92383803 5.17198187 4.92383803 5.17198187 0 0 Z " fill="#C3E6D9" transform="translate(445,55)"/>
<path d="M0 0 C0 0.99 0 1.98 0 3 C-4.29 3 -8.58 3 -13 3 C-13 2.34 -13 1.68 -13 1 C-11.39602723 0.83147753 -9.7918131 0.66525114 -8.1875 0.5 C-7.29417969 0.4071875 -6.40085937 0.314375 -5.48046875 0.21875 C-3 0 -3 0 0 0 Z " fill="#838383" transform="translate(301,441)"/>
<path d="M0 0 C6.49116162 2.3270202 6.49116162 2.3270202 8.9375 5.5625 C10 8 10 8 10 10 C9.34 10 8.68 10 8 10 C7.38125 8.8553125 7.38125 8.8553125 6.75 7.6875 C4.61384819 4.40698115 2.55420317 3.50066356 -1 2 C-0.67 1.34 -0.34 0.68 0 0 Z " fill="#C6E8DB" transform="translate(440,61)"/>
<path d="M0 0 C0.66 0 1.32 0 2 0 C2.33 1.65 2.66 3.3 3 5 C-1.43076923 8.07692308 -1.43076923 8.07692308 -4.3125 7.6875 C-4.869375 7.460625 -5.42625 7.23375 -6 7 C-3 5 -3 5 -1 4 C-0.34786708 1.97536745 -0.34786708 1.97536745 0 0 Z " fill="#C8E9DC" transform="translate(397,61)"/>
<path d="M0 0 C2.97 0 5.94 0 9 0 C6 3 6 3 2.8125 3.1875 C1.4203125 3.0946875 1.4203125 3.0946875 0 3 C0 2.01 0 1.02 0 0 Z " fill="#979797" transform="translate(76,441)"/>
<path d="M0 0 C1.9375 0.3125 1.9375 0.3125 4 1 C4.33 1.99 4.66 2.98 5 4 C2.47524538 5.26237731 0.68799534 5.09856404 -2.125 5.0625 C-3.03507812 5.05347656 -3.94515625 5.04445313 -4.8828125 5.03515625 C-5.58148438 5.02355469 -6.28015625 5.01195312 -7 5 C-7 4.67 -7 4.34 -7 4 C-4.36 3.67 -1.72 3.34 1 3 C0.67 2.01 0.34 1.02 0 0 Z " fill="#A1A1A1" transform="translate(295,437)"/>
<path d="M0 0 C0.99 0 1.98 0 3 0 C3 2.64 3 5.28 3 8 C2.01 8 1.02 8 0 8 C0 5.36 0 2.72 0 0 Z " fill="#969696" transform="translate(60,427)"/>
<path d="M0 0 C-1.24205807 3.72617422 -3.1110675 5.39291457 -6 8 C-6.66 8 -7.32 8 -8 8 C-6.65580512 3.85539913 -4.87800266 0 0 0 Z " fill="#C4E7DA" transform="translate(260,47)"/>
<path d="M0 0 C0.33 0.99 0.66 1.98 1 3 C3.50447516 4.21869929 3.50447516 4.21869929 6 5 C6 5.99 6 6.98 6 8 C1.125 6.125 1.125 6.125 0 5 C-0.04063832 3.33382885 -0.042721 1.66611905 0 0 Z " fill="#979797" transform="translate(75,431)"/>
<path d="M0 0 C0.99 1.485 0.99 1.485 2 3 C2.99 2.01 3.98 1.02 5 0 C5 1.65 5 3.3 5 5 C3.0625 5.5625 3.0625 5.5625 1 6 C0 5 0 5 -0.0625 2.4375 C-0.041875 1.633125 -0.02125 0.82875 0 0 Z " fill="#BFE5D7" transform="translate(296,94)"/>
<path d="M0 0 C0.78375 0.66 1.5675 1.32 2.375 2 C4.71512812 4.20201441 4.71512812 4.20201441 7 4 C7 4.99 7 5.98 7 7 C5.35 7 3.7 7 2 7 C1.855625 6.401875 1.71125 5.80375 1.5625 5.1875 C1.1127561 3.43849596 0.57107659 1.71322977 0 0 Z " fill="#D7EEE6" transform="translate(301,89)"/>
<path d="M0 0 C0.99 0 1.98 0 3 0 C2.67 1.98 2.34 3.96 2 6 C1.01 6.33 0.02 6.66 -1 7 C-0.67 4.69 -0.34 2.38 0 0 Z " fill="#878787" transform="translate(281,428)"/>
<path d="M0 0 C0.66 0 1.32 0 2 0 C2 1.65 2 3.3 2 5 C0.02 5.99 0.02 5.99 -2 7 C-1.34 4.69 -0.68 2.38 0 0 Z " fill="#888888" transform="translate(346,428)"/>
<path d="M0 0 C0.99 0 1.98 0 3 0 C2.67 1.65 2.34 3.3 2 5 C1.01 5.33 0.02 5.66 -1 6 C-1.042721 4.33388095 -1.04063832 2.66617115 -1 1 C-0.67 0.67 -0.34 0.34 0 0 Z " fill="#9F9F9F" transform="translate(299,427)"/>
<path d="M0 0 C0.66 0.66 1.32 1.32 2 2 C0.37660195 3.70884005 -1.29319053 5.37446717 -3 7 C-3.66 7 -4.32 7 -5 7 C-3.75023244 3.34683329 -3.32901247 2.21934164 0 0 Z " fill="#C6E8DB" transform="translate(261,51)"/>
</svg>
