<svg width="34" height="34" viewBox="0 0 34 34" fill="none" xmlns="http://www.w3.org/2000/svg">
<rect width="34" height="34" rx="8" fill="#EBFD71"/>
<path d="M15.164 16.379C15.938 13.49 16.55 11.6 17.9 11.6C19.25 11.6 19.862 13.49 20.636 16.379C21.5 19.628 22.49 23.3 26 23.3V21.5C24.02 21.5 23.3 19.286 22.373 15.92C21.572 12.914 20.735 9.8 17.9 9.8C15.065 9.8 14.228 12.914 13.427 15.92C12.527 19.286 11.78 21.5 9.8 21.5V8H8V26H26V24.2H9.8V23.3C13.31 23.3 14.3 19.628 15.164 16.379Z" fill="#204F56"/>
</svg>
