<svg width="616" height="796" viewBox="0 0 616 796" fill="none" xmlns="http://www.w3.org/2000/svg">
<g clip-path="url(#clip0_2294_50729)">
<rect width="616" height="796" fill="#57BC97"/>
<mask id="mask0_2294_50729" style="mask-type:alpha" maskUnits="userSpaceOnUse" x="0" y="0" width="616" height="796">
<rect width="616" height="796" fill="#9EB8F9"/>
</mask>
<g mask="url(#mask0_2294_50729)">
<path d="M1135.77 572.965C1086.81 528.809 1070.9 501.392 1144.06 456.55C1293.88 364.73 1342.99 206.488 1290.85 35.0461C1287.18 22.9808 1283.02 11.2914 1278.41 0H581.936C576.856 12.2643 572.291 25.1109 568.242 38.5323C552.339 91.2231 553.001 148.896 544.807 214.485C469.562 141.887 394.435 76.5855 332.973 0H15.3179C52.6163 105.33 135.386 185.07 206.632 271.841C-29.0927 381.866 -106.031 518.174 -56.8493 727.08C-51.1287 751.372 -43.2802 774.39 -33.4955 796H633.54C664.874 729.276 687.845 644.974 703.785 541.103C796.354 630.911 892.545 705.831 970.963 796H1292.19C1260.82 708.138 1205.1 635.481 1135.77 572.965ZM421.073 593.167C421.014 595.393 420.881 597.604 420.668 599.793C414.063 669.583 380.859 735.762 302.963 737.818C241.678 739.447 204.446 700.782 204.799 635.378C205.263 550.626 286.898 522.206 360.685 528.529C375.293 529.782 390.459 532.856 401.79 542.172C416.338 554.141 421.566 574.078 421.073 593.167ZM1038.62 160.482C1031.56 252.479 927.443 254.16 858.39 263.918C852.773 264.714 846.949 265.171 841.221 264.957C832.084 264.604 823.205 262.51 815.835 257.263C805.159 249.649 799.564 236.633 797.127 223.742C780.893 137.892 832.997 49.5215 926.162 47.4873C998.646 45.9027 1044.48 83.919 1038.62 160.482Z" fill="#50B296"/>
</g>
</g>
<defs>
<clipPath id="clip0_2294_50729">
<rect width="616" height="796" fill="white"/>
</clipPath>
</defs>
</svg>
