<svg width="616" height="796" viewBox="0 0 616 796" fill="none" xmlns="http://www.w3.org/2000/svg">
<g clip-path="url(#clip0_2175_48042)">
<rect width="616" height="796" fill="#9EB8F9"/>
<mask id="mask0_2175_48042" style="mask-type:alpha" maskUnits="userSpaceOnUse" x="0" y="0" width="616" height="796">
<rect width="616" height="796" fill="#9EB8F9"/>
</mask>
<g mask="url(#mask0_2175_48042)">
<g style="mix-blend-mode:multiply" opacity="0.2">
<path d="M781.772 572.965C732.812 528.809 716.901 501.392 790.063 456.55C939.882 364.73 988.99 206.488 936.849 35.0461C933.182 22.9808 929.022 11.2914 924.406 0H227.936C222.856 12.2643 218.291 25.1109 214.242 38.5323C198.339 91.2231 199.001 148.896 190.807 214.485C115.562 141.887 40.4351 76.5855 -21.0271 0H-338.682C-301.384 105.33 -218.614 185.07 -147.368 271.841C-383.093 381.866 -460.031 518.174 -410.849 727.08C-405.129 751.372 -397.28 774.39 -387.495 796H279.54C310.874 729.276 333.845 644.974 349.785 541.103C442.354 630.911 538.545 705.831 616.963 796H938.189C906.817 708.138 851.098 635.481 781.772 572.965ZM67.0726 593.167C67.0137 595.393 66.8812 597.604 66.6676 599.793C60.0635 669.583 26.8586 735.762 -51.0366 737.818C-112.322 739.447 -149.554 700.782 -149.201 635.378C-148.737 550.626 -67.1016 522.205 6.68539 528.529C21.2926 529.782 36.4593 532.856 47.7902 542.172C62.3385 554.141 67.5659 574.078 67.0726 593.167ZM684.617 160.482C677.556 252.479 573.443 254.16 504.39 263.918C498.773 264.714 492.949 265.171 487.221 264.957C478.084 264.604 469.205 262.51 461.835 257.263C451.159 249.649 445.564 236.633 443.127 223.742C426.893 137.892 478.997 49.5215 572.162 47.4873C644.646 45.9027 690.485 83.919 684.617 160.482Z" fill="#9EB8F9"/>
</g>
</g>
</g>
<path opacity="0.2" d="M308 567L308 501" stroke="url(#paint0_linear_2175_48042)" stroke-width="26" stroke-linecap="round"/>
<path d="M308 567L308 380" stroke="url(#paint1_linear_2175_48042)" stroke-linecap="round"/>
<path d="M308 567L308 454" stroke="url(#paint2_linear_2175_48042)" stroke-linecap="round"/>
<path d="M320.98 462.535V455.16C320.98 436.382 336.203 421.159 354.98 421.159C373.758 421.159 388.98 405.937 388.98 387.159V377.535" stroke="url(#paint3_linear_2175_48042)" stroke-linecap="round"/>
<path d="M293.98 462.535V454.66C293.98 436.158 278.982 421.159 260.48 421.159C241.979 421.159 226.98 406.161 226.98 387.659V377.535" stroke="url(#paint4_linear_2175_48042)" stroke-linecap="round"/>
<circle cx="310.5" cy="636.5" r="59.8984" fill="white"/>
<circle cx="310.5" cy="636.5" r="75.9688" fill="white" fill-opacity="0.5"/>
<circle cx="310.5" cy="636.5" r="93.5" fill="white" fill-opacity="0.2"/>
<path d="M334.484 656.953H288.33C281.718 655.658 278.992 650.153 278.455 647.563C277.511 638.582 283.786 635.042 287.042 634.395C286.613 630.768 288.581 627.918 289.618 626.947C293.654 621.507 300.101 621.658 302.82 622.414C309.346 613.779 319.207 613.995 323.321 615.182C335.515 618.467 338.635 630.079 338.67 635.474C341.332 637.374 343.071 640.511 343.608 641.842C346.098 651.859 338.563 656.09 334.484 656.953Z" stroke="#1A2641" stroke-width="2" stroke-linecap="round"/>
<rect x="282" y="454" width="53" height="53" rx="10" fill="#1A2641"/>
<line x1="299.5" y1="470" x2="299.5" y2="490" stroke="white"/>
<path d="M306 476L299.5 470L293 476" stroke="white"/>
<line x1="316.5" y1="490" x2="316.5" y2="470" stroke="white"/>
<path d="M310 484L316.5 490L323 484" stroke="white"/>
<g filter="url(#filter0_d_2175_48042)">
<rect x="172" y="199" width="273" height="61.2433" rx="4" fill="white"/>
<rect x="172.5" y="199.5" width="272" height="60.2433" rx="3.5" stroke="#EDEDED"/>
</g>
<path d="M191.265 214.909H201.646C202.309 214.909 202.945 215.173 203.414 215.641L208.434 220.661C208.902 221.13 209.166 221.766 209.166 222.428V241.371C209.166 242.752 208.047 243.871 206.666 243.871H191.265C189.884 243.871 188.765 242.752 188.765 241.371V217.409C188.765 216.028 189.884 214.909 191.265 214.909Z" stroke="#57BC97"/>
<path d="M202.532 214.765V218.899C202.532 220.556 203.875 221.899 205.532 221.899H209.309" stroke="#57BC97" stroke-linecap="round"/>
<path opacity="0.6" d="M312.088 217.465C312.088 215.745 313.482 214.351 315.202 214.351H416.928C418.648 214.351 420.042 215.745 420.042 217.465V217.465C420.042 219.185 418.648 220.579 416.928 220.579H315.202C313.482 220.579 312.088 219.185 312.088 217.465V217.465Z" fill="#D9D9D9"/>
<path opacity="0.6" d="M234.235 233.554C234.235 232.121 235.397 230.959 236.83 230.959H417.446C418.88 230.959 420.041 232.121 420.041 233.554V233.554C420.041 234.987 418.88 236.149 417.446 236.149H236.83C235.397 236.149 234.235 234.987 234.235 233.554V233.554Z" fill="#D9D9D9"/>
<g filter="url(#filter1_d_2175_48042)">
<rect x="172" y="265.813" width="273" height="61.2433" rx="4" fill="white"/>
<rect x="172.5" y="266.313" width="272" height="60.2433" rx="3.5" stroke="#EDEDED"/>
</g>
<path d="M191.265 281.955H201.646C202.309 281.955 202.945 282.218 203.414 282.687L208.434 287.707C208.902 288.175 209.166 288.811 209.166 289.474V308.417C209.166 309.797 208.047 310.917 206.666 310.917H191.265C189.884 310.917 188.765 309.797 188.765 308.417V284.455C188.765 283.074 189.884 281.955 191.265 281.955Z" stroke="#57BC97"/>
<path d="M202.532 281.811V285.945C202.532 287.601 203.875 288.945 205.532 288.945H209.309" stroke="#57BC97" stroke-linecap="round"/>
<path opacity="0.6" d="M381.846 284.498C381.846 282.778 383.24 281.384 384.96 281.384H417.138C418.858 281.384 420.253 282.778 420.253 284.498V284.498C420.253 286.218 418.858 287.612 417.138 287.612H384.96C383.24 287.612 381.846 286.218 381.846 284.498V284.498Z" fill="#D9D9D9"/>
<path opacity="0.6" d="M284.271 301.107C284.271 299.387 285.666 297.993 287.386 297.993H417.138C418.858 297.993 420.252 299.387 420.252 301.107V301.107C420.252 302.827 418.858 304.221 417.138 304.221H287.386C285.666 304.221 284.271 302.827 284.271 301.107V301.107Z" fill="#D9D9D9"/>
<g filter="url(#filter2_d_2175_48042)">
<rect x="172" y="332.627" width="273" height="61.2433" rx="4" fill="white"/>
<rect x="172.5" y="333.127" width="272" height="60.2433" rx="3.5" stroke="#EDEDED"/>
</g>
<path d="M191.265 349H201.646C202.309 349 202.945 349.263 203.414 349.732L208.434 354.751C208.902 355.22 209.166 355.856 209.166 356.519V375.461C209.166 376.842 208.047 377.961 206.666 377.961H191.265C189.884 377.961 188.765 376.842 188.765 375.461V351.5C188.765 350.119 189.884 349 191.265 349Z" stroke="#57BC97"/>
<path d="M202.532 348.856V352.99C202.532 354.646 203.875 355.99 205.532 355.99H209.309" stroke="#57BC97" stroke-linecap="round"/>
<path opacity="0.6" d="M264.549 351.312C264.549 349.592 265.943 348.198 267.663 348.198H417.138C418.858 348.198 420.252 349.592 420.252 351.312V351.312C420.252 353.032 418.858 354.426 417.138 354.426H267.663C265.943 354.426 264.549 353.032 264.549 351.312V351.312Z" fill="#D9D9D9"/>
<path opacity="0.6" d="M320.603 367.92C320.603 366.2 321.997 364.806 323.717 364.806H417.139C418.859 364.806 420.253 366.2 420.253 367.92V367.92C420.253 369.64 418.859 371.034 417.139 371.034H323.717C321.997 371.034 320.603 369.64 320.603 367.92V367.92Z" fill="#D9D9D9"/>
<defs>
<filter id="filter0_d_2175_48042" x="158" y="189" width="301" height="89.2434" filterUnits="userSpaceOnUse" color-interpolation-filters="sRGB">
<feFlood flood-opacity="0" result="BackgroundImageFix"/>
<feColorMatrix in="SourceAlpha" type="matrix" values="0 0 0 0 0 0 0 0 0 0 0 0 0 0 0 0 0 0 127 0" result="hardAlpha"/>
<feOffset dy="4"/>
<feGaussianBlur stdDeviation="7"/>
<feComposite in2="hardAlpha" operator="out"/>
<feColorMatrix type="matrix" values="0 0 0 0 0 0 0 0 0 0 0 0 0 0 0 0 0 0 0.15 0"/>
<feBlend mode="normal" in2="BackgroundImageFix" result="effect1_dropShadow_2175_48042"/>
<feBlend mode="normal" in="SourceGraphic" in2="effect1_dropShadow_2175_48042" result="shape"/>
</filter>
<filter id="filter1_d_2175_48042" x="158" y="255.813" width="301" height="89.2434" filterUnits="userSpaceOnUse" color-interpolation-filters="sRGB">
<feFlood flood-opacity="0" result="BackgroundImageFix"/>
<feColorMatrix in="SourceAlpha" type="matrix" values="0 0 0 0 0 0 0 0 0 0 0 0 0 0 0 0 0 0 127 0" result="hardAlpha"/>
<feOffset dy="4"/>
<feGaussianBlur stdDeviation="7"/>
<feComposite in2="hardAlpha" operator="out"/>
<feColorMatrix type="matrix" values="0 0 0 0 0 0 0 0 0 0 0 0 0 0 0 0 0 0 0.15 0"/>
<feBlend mode="normal" in2="BackgroundImageFix" result="effect1_dropShadow_2175_48042"/>
<feBlend mode="normal" in="SourceGraphic" in2="effect1_dropShadow_2175_48042" result="shape"/>
</filter>
<filter id="filter2_d_2175_48042" x="158" y="322.627" width="301" height="89.2434" filterUnits="userSpaceOnUse" color-interpolation-filters="sRGB">
<feFlood flood-opacity="0" result="BackgroundImageFix"/>
<feColorMatrix in="SourceAlpha" type="matrix" values="0 0 0 0 0 0 0 0 0 0 0 0 0 0 0 0 0 0 127 0" result="hardAlpha"/>
<feOffset dy="4"/>
<feGaussianBlur stdDeviation="7"/>
<feComposite in2="hardAlpha" operator="out"/>
<feColorMatrix type="matrix" values="0 0 0 0 0 0 0 0 0 0 0 0 0 0 0 0 0 0 0.15 0"/>
<feBlend mode="normal" in2="BackgroundImageFix" result="effect1_dropShadow_2175_48042"/>
<feBlend mode="normal" in="SourceGraphic" in2="effect1_dropShadow_2175_48042" result="shape"/>
</filter>
<linearGradient id="paint0_linear_2175_48042" x1="308.5" y1="477.5" x2="308.5" y2="586" gradientUnits="userSpaceOnUse">
<stop offset="0.115385" stop-color="#1A2641" stop-opacity="0"/>
<stop offset="0.464664" stop-color="#2E4474"/>
<stop offset="0.939982" stop-color="#4362A7" stop-opacity="0"/>
</linearGradient>
<linearGradient id="paint1_linear_2175_48042" x1="308.5" y1="380" x2="308.5" y2="567" gradientUnits="userSpaceOnUse">
<stop offset="0.115385" stop-color="#1A2641" stop-opacity="0"/>
<stop offset="0.5" stop-color="#2E4474"/>
<stop offset="0.850962" stop-color="#4362A7" stop-opacity="0"/>
</linearGradient>
<linearGradient id="paint2_linear_2175_48042" x1="308.5" y1="454" x2="308.5" y2="567" gradientUnits="userSpaceOnUse">
<stop offset="0.115385" stop-color="#1A2641" stop-opacity="0"/>
<stop offset="0.5" stop-color="#2E4474"/>
<stop offset="0.850962" stop-color="#4362A7" stop-opacity="0"/>
</linearGradient>
<linearGradient id="paint3_linear_2175_48042" x1="354.98" y1="377.535" x2="354.98" y2="462.535" gradientUnits="userSpaceOnUse">
<stop offset="0.115385" stop-color="#1A2641" stop-opacity="0"/>
<stop offset="0.5" stop-color="#2E4474"/>
<stop offset="0.850962" stop-color="#4362A7" stop-opacity="0"/>
</linearGradient>
<linearGradient id="paint4_linear_2175_48042" x1="260.48" y1="377.535" x2="260.48" y2="462.535" gradientUnits="userSpaceOnUse">
<stop offset="0.115385" stop-color="#1A2641" stop-opacity="0"/>
<stop offset="0.5" stop-color="#2E4474"/>
<stop offset="0.850962" stop-color="#4362A7" stop-opacity="0"/>
</linearGradient>
<clipPath id="clip0_2175_48042">
<rect width="616" height="796" fill="white"/>
</clipPath>
</defs>
</svg>
