<svg width="34" height="34" viewBox="0 0 34 34" fill="none" xmlns="http://www.w3.org/2000/svg">
<rect width="34" height="34" rx="8" fill="#EBFD71"/>
<path d="M23 28V9.5C23 9.10218 22.842 8.72064 22.5607 8.43934C22.2794 8.15804 21.8978 8 21.5 8H9.5C9.10218 8 8.72064 8.15804 8.43934 8.43934C8.15804 8.72064 8 9.10218 8 9.5V26.5C8 26.8978 8.15804 27.2794 8.43934 27.5607C8.72064 27.842 9.10218 28 9.5 28H23ZM23 28H25.5C25.8978 28 26.2794 27.842 26.5607 27.5607C26.842 27.2794 27 26.8978 27 26.5V18C27 17.7348 26.8946 17.4804 26.7071 17.2929C26.5196 17.1054 26.2652 17 26 17H24C23.7348 17 23.4804 17.1054 23.2929 17.2929C23.1054 17.4804 23 17.7348 23 18V28Z" stroke="#204F56" stroke-width="1.5" stroke-linejoin="round"/>
<path d="M11 12H15M11 15.5H17" stroke="#204F56" stroke-width="1.5" stroke-linecap="round" stroke-linejoin="round"/>
</svg>
