<svg width="34" height="34" viewBox="0 0 34 34" fill="none" xmlns="http://www.w3.org/2000/svg">
<rect width="34" height="34" rx="8" fill="#EBFD71"/>
<path d="M15 14H11M11 11H14M23 23L18.5 20L16 22L11 18M20.5 16C19.837 16 19.2011 15.7366 18.7322 15.2678C18.2634 14.7989 18 14.163 18 13.5C18 12.837 18.2634 12.2011 18.7322 11.7322C19.2011 11.2634 19.837 11 20.5 11C21.163 11 21.7989 11.2634 22.2678 11.7322C22.7366 12.2011 23 12.837 23 13.5C23 14.163 22.7366 14.7989 22.2678 15.2678C21.7989 15.7366 21.163 16 20.5 16Z" stroke="#204F56" stroke-width="1.5" stroke-linecap="round" stroke-linejoin="round"/>
<path d="M8 25.4V8.6C8 8.44087 8.06321 8.28826 8.17574 8.17574C8.28826 8.06321 8.44087 8 8.6 8H25.4C25.5591 8 25.7117 8.06321 25.8243 8.17574C25.9368 8.28826 26 8.44087 26 8.6V25.4C26 25.5591 25.9368 25.7117 25.8243 25.8243C25.7117 25.9368 25.5591 26 25.4 26H8.6C8.44087 26 8.28826 25.9368 8.17574 25.8243C8.06321 25.7117 8 25.5591 8 25.4Z" stroke="#204F56" stroke-width="1.5"/>
</svg>
