<svg preserveAspectRatio="none" width="100%" height="100%" overflow="visible" style="display: block;" viewBox="0 0 1382 786" fill="none" xmlns="http://www.w3.org/2000/svg">
<path id="Vector" d="M1206.78 565.767C1157.81 522.166 1141.9 495.093 1215.07 450.815C1364.89 360.148 1413.99 203.894 1361.85 34.6058C1358.19 22.6921 1354.03 11.1496 1349.41 0H652.937C647.857 12.1102 643.292 24.7954 639.243 38.0482C623.34 90.0771 624.003 147.026 615.808 211.791C540.563 140.105 465.436 75.6234 403.974 0H86.3181C123.617 104.007 206.386 182.745 277.633 268.426C41.9074 377.069 -35.0309 511.664 14.1507 717.945C19.8714 741.933 27.7198 764.662 37.5046 786H704.541C735.876 720.114 758.847 636.871 774.787 534.305C867.356 622.985 963.547 696.964 1041.97 786H1363.19C1331.82 699.242 1276.1 627.497 1206.78 565.767ZM492.074 585.716C492.015 587.913 491.882 590.097 491.669 592.258C485.065 661.172 451.86 726.519 373.964 728.549C312.679 730.158 275.446 691.978 275.8 627.395C276.264 543.708 357.899 515.645 431.686 521.889C446.294 523.127 461.46 526.161 472.791 535.361C487.34 547.18 492.567 566.866 492.074 585.716ZM1109.62 158.466C1102.56 249.308 998.445 250.967 929.392 260.603C923.775 261.389 917.951 261.84 912.223 261.629C903.086 261.279 894.207 259.213 886.837 254.031C876.161 246.513 870.566 233.66 868.129 220.932C851.895 136.16 903.999 48.8994 997.164 46.8907C1069.65 45.326 1115.49 82.8648 1109.62 158.466Z" fill="var(--fill-0, #D9EF70)"/>
</svg>
