<svg width="1440" height="445" viewBox="0 0 1440 445" fill="none" xmlns="http://www.w3.org/2000/svg">
<g>
<path d="M1257.42 420.439C1206.41 374.397 1189.83 345.808 1266.06 299.051C1422.17 203.309 1473.34 38.3082 1419.01 -140.457C1415.19 -153.038 1410.85 -165.226 1406.04 -177H680.34C675.047 -164.212 670.29 -150.817 666.071 -136.822C649.5 -81.8805 650.191 -21.7439 641.653 46.6466C563.25 -29.0525 484.97 -97.1432 420.928 -177H89.9407C128.805 -67.171 215.048 15.975 289.285 106.453C43.6662 221.177 -36.5011 363.307 14.7446 581.136C20.7053 606.466 28.8832 630.467 39.0786 653H734.11C766.76 583.426 790.695 495.523 807.303 387.216C903.757 480.859 1003.99 558.979 1085.69 653H1420.4C1387.71 561.385 1329.66 485.624 1257.42 420.439ZM512.725 441.504C512.664 443.825 512.526 446.13 512.303 448.413C505.422 521.184 470.823 590.189 389.659 592.333C325.801 594.032 287.006 553.715 287.375 485.517C287.858 397.145 372.92 367.511 449.803 374.105C465.024 375.411 480.827 378.616 492.634 388.33C507.792 400.811 513.239 421.599 512.725 441.504ZM1156.19 -9.66278C1148.83 86.2637 1040.35 88.0159 968.397 98.1911C962.544 99.0211 956.476 99.4976 950.507 99.2747C940.987 98.9058 931.735 96.7232 924.056 91.2514C912.932 83.3126 907.102 69.7406 904.563 56.2992C887.647 -33.2179 941.938 -125.363 1039.01 -127.484C1114.54 -129.137 1162.3 -89.4965 1156.19 -9.66278Z" fill="#92ADF8"/>
</g>
</svg>
